<?xml version="1.0" standalone="no"?>
<!DOCTYPE svg PUBLIC "-//W3C//DTD SVG 20010904//EN"
 "http://www.w3.org/TR/2001/REC-SVG-20010904/DTD/svg10.dtd">
<svg version="1.0" xmlns="http://www.w3.org/2000/svg"
 width="675.000000pt" height="675.000000pt" viewBox="0 0 675.000000 675.000000"
 preserveAspectRatio="xMidYMid meet">
<metadata>
Created by potrace 1.10, written by Peter Selinger 2001-2011
</metadata>
<g transform="translate(0.000000,675.000000) scale(0.100000,-0.100000)"
fill="#37af2d" stroke="none">
<path d="M1175 5840 c-3 -6 -3 -20 0 -31 4 -12 11 -81 15 -153 5 -72 13 -178
19 -236 6 -58 18 -184 26 -280 9 -96 21 -224 27 -285 6 -60 14 -162 18 -225 8
-129 26 -325 40 -445 5 -44 14 -147 20 -230 6 -82 15 -177 20 -210 6 -33 10
-91 10 -130 0 -38 5 -99 11 -135 6 -36 15 -123 19 -195 5 -71 13 -182 20 -245
6 -63 17 -182 25 -265 30 -311 37 -394 45 -527 4 -75 11 -141 14 -147 4 -5 11
-76 16 -158 5 -81 14 -191 19 -243 6 -52 14 -147 20 -210 11 -130 16 -150 40
-150 14 0 64 -14 146 -42 17 -5 46 -14 65 -18 19 -5 67 -18 105 -30 39 -12 89
-25 113 -29 24 -4 48 -13 54 -19 7 -7 25 -12 41 -12 15 0 38 -5 50 -12 12 -6
38 -15 57 -19 72 -14 165 -41 174 -50 6 -5 19 -9 30 -9 12 0 41 -6 66 -14 25
-8 71 -22 102 -30 126 -35 175 -49 213 -61 50 -15 138 -40 210 -60 114 -32
229 -64 301 -86 33 -10 100 2 161 27 17 8 39 14 48 14 16 0 70 15 150 42 17 6
48 14 70 18 22 4 54 13 70 18 34 12 147 45 295 85 70 20 164 47 215 63 22 6
69 19 105 29 36 9 79 21 95 27 17 6 46 13 65 15 19 3 40 9 46 14 6 5 31 13 55
18 24 6 76 19 114 31 39 12 86 25 105 30 97 25 128 33 158 46 18 8 41 14 52
14 28 0 37 47 50 245 6 94 15 188 20 210 5 22 10 72 10 110 0 39 5 102 11 140
5 39 14 131 19 205 4 74 13 189 20 255 16 172 38 402 50 535 7 63 15 174 20
245 4 72 13 159 19 195 6 36 11 97 11 135 0 39 4 97 10 130 5 33 14 128 20
210 6 83 15 186 20 230 14 120 32 316 40 445 4 63 12 165 18 225 6 61 18 189
27 285 8 96 20 222 26 280 6 58 15 166 20 240 5 74 11 146 12 160 l2 25 -2187
3 c-1466 1 -2189 -1 -2193 -8z m3558 -1005 c-2 -55 -10 -165 -18 -245 -26
-249 -37 -371 -45 -495 -4 -66 -13 -147 -19 -179 -6 -33 -11 -91 -11 -129 0
-38 -7 -124 -15 -191 -16 -135 -31 -308 -45 -496 -5 -69 -14 -146 -19 -170 -6
-25 -11 -81 -11 -125 0 -44 -7 -125 -15 -180 -8 -55 -15 -127 -15 -160 0 -92
-30 -308 -45 -324 -7 -7 -30 -17 -52 -22 -58 -12 -124 -30 -163 -44 -34 -12
-88 -27 -160 -45 -19 -4 -48 -13 -65 -18 -61 -21 -111 -36 -145 -43 -19 -4
-66 -17 -105 -29 -38 -12 -86 -25 -105 -30 -19 -4 -48 -13 -65 -18 -16 -6 -56
-17 -87 -26 -32 -9 -83 -24 -113 -33 -51 -16 -57 -16 -90 0 -20 9 -44 17 -55
17 -11 0 -34 6 -52 14 -18 8 -60 22 -93 31 -33 10 -75 24 -93 31 -18 8 -43 14
-55 14 -12 0 -31 6 -42 14 -11 7 -33 16 -50 18 -16 3 -45 11 -62 17 -78 26
-100 33 -138 42 -22 6 -44 14 -50 20 -5 5 -19 9 -32 9 -12 0 -37 6 -55 14 -18
7 -60 21 -93 31 -131 38 -162 48 -202 66 l-43 19 0 107 c0 60 -5 137 -11 173
-9 56 -27 327 -32 470 l-2 45 264 3 c176 1 268 -1 275 -8 6 -6 14 -57 17 -113
3 -56 12 -152 19 -213 l13 -110 46 -12 c25 -7 66 -17 91 -22 24 -6 49 -15 54
-20 6 -6 21 -10 34 -10 13 0 45 -7 71 -14 25 -8 73 -23 106 -32 33 -9 80 -24
105 -32 58 -20 152 -20 210 0 25 8 72 23 105 32 33 9 81 24 106 32 26 7 56 14
67 14 11 0 33 7 48 15 16 8 37 15 48 15 24 0 119 32 127 43 3 5 9 54 13 110 3
56 11 120 16 142 5 22 10 67 10 101 0 33 7 101 16 151 8 49 14 119 12 154 l-3
64 -640 5 -640 5 -3 45 c-1 25 -9 97 -16 160 -8 63 -16 162 -18 220 l-3 105
690 5 690 5 7 100 c4 55 12 127 17 160 6 33 12 112 13 175 l3 115 -1050 5
-1050 5 -12 90 c-16 122 -35 443 -28 455 4 7 482 9 1373 8 l1367 -3 -2 -100z"/>
</g>
</svg>
