<?xml version="1.0" standalone="no"?>
<!DOCTYPE svg PUBLIC "-//W3C//DTD SVG 20010904//EN"
 "http://www.w3.org/TR/2001/REC-SVG-20010904/DTD/svg10.dtd">
<svg version="1.0" xmlns="http://www.w3.org/2000/svg"
 width="675.000000pt" height="675.000000pt" viewBox="0 0 675.000000 675.000000"
 preserveAspectRatio="xMidYMid meet">
<metadata>
Created by potrace 1.10, written by Peter Selinger 2001-2011
</metadata>
<g transform="translate(0.000000,675.000000) scale(0.100000,-0.100000)"
fill="#37af2d" stroke="none">
<path d="M1010 5141 c0 -15 2079 -2089 2135 -2131 77 -57 138 -80 211 -80 67
0 107 14 184 64 25 16 513 496 1085 1067 572 571 1049 1045 1059 1052 11 8 16
19 12 25 -9 15 -4686 17 -4686 3z"/>
<path d="M5097 4151 c-433 -434 -787 -795 -787 -803 0 -19 1570 -1589 1581
-1582 11 6 12 3161 1 3167 -4 3 -361 -349 -795 -782z"/>
<path d="M827 4913 c-4 -3 -7 -712 -7 -1575 0 -1251 3 -1569 13 -1566 19 5
1567 1562 1567 1576 0 11 -1551 1572 -1562 1572 -3 0 -8 -3 -11 -7z"/>
<path d="M1802 2353 c-430 -431 -780 -789 -777 -794 8 -12 4665 -12 4665 0 0
18 -1572 1581 -1589 1581 -10 0 -38 -21 -63 -47 -74 -77 -242 -239 -300 -289
-55 -47 -182 -134 -195 -134 -5 0 -26 -10 -48 -21 -33 -18 -57 -22 -140 -22
-87 0 -108 3 -151 24 -129 63 -249 158 -467 373 -66 64 -126 116 -135 115 -10
-1 -369 -354 -800 -786z"/>
</g>
</svg>
