<?xml version="1.0" standalone="no"?>
<!DOCTYPE svg PUBLIC "-//W3C//DTD SVG 20010904//EN"
 "http://www.w3.org/TR/2001/REC-SVG-20010904/DTD/svg10.dtd">
<svg version="1.0" xmlns="http://www.w3.org/2000/svg"
 width="675.000000pt" height="675.000000pt" viewBox="0 0 675.000000 675.000000"
 preserveAspectRatio="xMidYMid meet">
<metadata>
Created by potrace 1.10, written by Peter Selinger 2001-2011
</metadata>
<g transform="translate(0.000000,675.000000) scale(0.100000,-0.100000)"
fill="#37af2d" stroke="none">
<path d="M3165 6734 c-8 -13 -38 -18 -145 -24 -74 -4 -148 -13 -163 -19 -16
-6 -49 -11 -75 -11 -26 -1 -65 -7 -87 -15 -22 -8 -51 -15 -65 -15 -14 0 -45
-6 -70 -14 -25 -8 -72 -22 -105 -31 -33 -9 -73 -21 -90 -27 -16 -5 -48 -14
-70 -19 -22 -6 -44 -14 -50 -20 -5 -5 -18 -9 -30 -9 -12 0 -30 -7 -41 -15 -10
-8 -27 -15 -37 -15 -17 0 -50 -14 -97 -41 -8 -5 -22 -12 -30 -15 -60 -22 -231
-105 -295 -144 -27 -16 -59 -34 -70 -40 -11 -6 -33 -19 -50 -30 -16 -11 -37
-23 -45 -27 -8 -3 -34 -20 -56 -37 -23 -17 -52 -38 -64 -46 -12 -8 -28 -21
-36 -27 -7 -7 -16 -13 -21 -13 -4 0 -33 -22 -65 -48 -31 -26 -71 -58 -89 -72
-101 -77 -372 -348 -449 -449 -14 -18 -44 -56 -68 -84 -63 -76 -182 -251 -232
-342 -6 -11 -26 -47 -45 -80 -53 -93 -135 -262 -135 -278 0 -8 -7 -20 -15 -27
-8 -7 -15 -18 -15 -25 0 -7 -7 -26 -15 -41 -8 -16 -15 -36 -15 -44 0 -8 -7
-24 -15 -34 -8 -11 -15 -27 -15 -37 0 -9 -7 -30 -15 -45 -8 -16 -15 -36 -15
-45 0 -9 -7 -30 -15 -45 -8 -16 -15 -40 -15 -54 -1 -14 -7 -36 -15 -50 -8 -14
-14 -37 -15 -51 0 -15 -7 -43 -15 -62 -8 -20 -15 -49 -15 -65 0 -16 -7 -46
-15 -65 -8 -20 -15 -56 -15 -81 0 -25 -5 -57 -11 -73 -43 -112 -43 -924 0
-1036 6 -16 11 -48 11 -73 0 -25 7 -61 15 -81 8 -19 15 -49 15 -65 0 -16 7
-45 15 -65 8 -19 15 -47 15 -62 0 -14 7 -39 15 -55 8 -15 15 -37 15 -47 0 -10
6 -33 14 -51 19 -47 36 -98 46 -137 5 -18 13 -38 19 -44 6 -6 11 -18 11 -27 0
-8 7 -28 15 -44 8 -15 15 -34 15 -41 0 -7 7 -18 15 -25 8 -7 15 -20 15 -30 0
-17 107 -233 148 -300 12 -19 26 -44 32 -55 6 -11 19 -33 30 -50 11 -16 23
-37 27 -45 3 -8 19 -31 35 -51 15 -20 28 -40 28 -44 0 -7 114 -161 139 -187 9
-9 27 -31 41 -49 81 -108 416 -439 478 -473 9 -5 22 -15 27 -21 24 -29 260
-194 320 -225 11 -6 34 -19 50 -29 71 -46 263 -144 385 -199 19 -8 47 -21 62
-29 14 -7 33 -13 41 -13 9 0 28 -6 44 -14 30 -15 80 -33 128 -46 29 -8 55 -16
128 -41 17 -6 50 -15 72 -19 22 -4 53 -12 68 -19 16 -6 41 -11 56 -11 16 0 45
-7 64 -15 20 -8 56 -15 81 -15 25 0 57 -5 73 -11 107 -42 927 -42 1036 0 16 6
47 11 70 11 23 1 60 7 82 15 22 8 53 15 68 15 15 0 44 7 64 15 19 8 47 15 62
15 14 0 39 7 55 15 15 8 38 15 50 15 11 1 32 7 46 15 14 8 34 14 45 15 11 0
33 7 49 15 15 8 35 15 43 15 8 0 27 6 41 14 15 8 47 21 72 31 92 35 305 137
385 185 28 16 57 33 65 37 8 4 26 14 40 24 14 9 59 38 100 65 75 48 88 58 115
81 7 7 17 13 20 13 8 0 79 53 107 79 9 9 31 27 49 41 97 73 376 352 449 449
14 19 39 50 55 70 50 58 95 118 95 125 0 4 5 12 10 19 23 27 77 103 83 117 4
8 16 29 27 45 11 17 24 39 30 50 6 11 26 47 45 80 60 107 147 287 180 375 10
25 23 57 31 72 8 14 14 33 14 41 0 8 7 28 15 43 8 16 15 36 15 45 0 9 7 30 15
45 8 16 15 39 15 50 0 12 7 35 15 50 8 16 15 41 15 55 0 15 7 43 15 62 8 20
15 49 15 65 0 16 7 46 15 65 8 20 15 56 15 81 0 25 5 57 11 73 6 15 14 91 19
168 7 107 13 142 25 151 13 9 15 41 15 199 0 158 -2 190 -15 199 -12 9 -18 44
-25 151 -5 77 -13 153 -19 168 -6 16 -11 48 -11 73 0 25 -7 61 -15 81 -8 19
-15 49 -15 65 0 16 -7 45 -15 65 -8 19 -15 47 -15 62 -1 14 -7 37 -15 51 -8
14 -14 36 -15 50 0 14 -7 38 -15 54 -8 15 -15 36 -15 45 0 9 -7 29 -15 45 -8
15 -15 36 -15 45 0 10 -7 26 -15 37 -8 10 -15 27 -15 37 0 11 -6 31 -13 45 -8
15 -21 43 -29 62 -30 69 -129 266 -158 315 -16 28 -34 59 -40 70 -6 11 -19 34
-30 50 -11 17 -23 37 -27 45 -3 8 -19 31 -35 51 -15 20 -28 40 -28 44 0 8
-118 166 -135 180 -6 6 -16 18 -21 27 -37 68 -434 465 -502 502 -9 5 -21 15
-27 21 -14 16 -87 71 -101 76 -6 2 -24 14 -40 26 -60 47 -120 90 -134 96 -8 4
-28 16 -45 27 -16 11 -39 24 -50 30 -11 6 -42 24 -70 40 -79 48 -291 150 -385
185 -25 10 -58 23 -75 30 -38 16 -92 34 -130 45 -16 5 -46 14 -65 20 -19 7
-48 16 -65 22 -16 6 -48 14 -70 18 -22 4 -53 12 -68 19 -16 6 -40 11 -55 11
-15 0 -45 7 -67 15 -22 8 -61 14 -87 15 -26 0 -59 5 -75 11 -15 6 -88 14 -162
19 -107 5 -136 10 -146 23 -11 15 -37 17 -201 17 -162 0 -191 -2 -199 -16z
m420 -404 c83 -6 182 -18 220 -26 39 -8 84 -14 101 -14 17 0 51 -7 74 -15 23
-8 57 -15 74 -15 17 -1 42 -7 56 -15 14 -8 39 -14 55 -15 17 0 36 -5 42 -11 6
-6 29 -15 50 -19 45 -9 98 -28 135 -46 14 -8 33 -14 41 -14 9 0 28 -6 44 -14
15 -8 44 -21 63 -30 124 -53 302 -147 378 -197 24 -16 45 -29 47 -29 6 0 134
-89 201 -139 190 -144 422 -376 566 -566 49 -66 138 -194 138 -200 0 -2 12
-21 26 -42 14 -21 30 -47 35 -58 5 -11 18 -33 29 -50 11 -16 22 -37 26 -45 3
-8 9 -22 14 -30 10 -17 45 -88 54 -110 3 -8 10 -22 14 -30 5 -8 17 -33 26 -55
10 -22 24 -53 32 -68 8 -16 14 -35 14 -44 0 -8 6 -27 14 -41 18 -37 37 -90 46
-135 4 -21 13 -44 19 -50 6 -6 11 -25 11 -41 0 -17 7 -44 15 -60 8 -15 15 -44
15 -62 0 -19 7 -51 15 -71 8 -19 15 -51 15 -70 0 -19 6 -61 14 -92 41 -165 41
-727 0 -892 -8 -31 -14 -73 -14 -92 0 -19 -7 -51 -15 -70 -8 -20 -15 -52 -15
-71 0 -18 -7 -47 -15 -62 -8 -16 -15 -43 -15 -59 0 -17 -5 -36 -11 -42 -6 -6
-15 -29 -19 -50 -9 -45 -28 -98 -46 -135 -8 -14 -14 -33 -14 -41 0 -9 -6 -28
-14 -44 -15 -30 -41 -89 -50 -113 -3 -8 -10 -22 -15 -30 -5 -8 -19 -35 -31
-60 -11 -25 -25 -52 -30 -60 -5 -8 -11 -22 -14 -30 -4 -8 -15 -28 -26 -45 -11
-16 -23 -37 -27 -45 -3 -8 -18 -33 -32 -55 -37 -58 -49 -78 -58 -95 -4 -8 -11
-19 -15 -25 -5 -5 -39 -51 -76 -102 -180 -243 -454 -509 -682 -663 -12 -8 -28
-20 -34 -26 -6 -5 -18 -13 -26 -17 -8 -4 -27 -15 -41 -25 -26 -17 -125 -76
-164 -98 -29 -17 -224 -113 -265 -130 -19 -9 -48 -22 -63 -30 -16 -8 -35 -14
-44 -14 -8 0 -27 -6 -41 -14 -37 -18 -90 -37 -135 -46 -21 -4 -44 -13 -50 -19
-6 -6 -25 -11 -41 -11 -17 0 -44 -7 -60 -15 -15 -8 -43 -15 -61 -15 -18 0 -49
-7 -68 -15 -20 -8 -51 -15 -69 -15 -18 0 -64 -6 -103 -14 -74 -16 -323 -36
-440 -36 -117 0 -366 20 -440 36 -38 8 -85 14 -103 14 -18 0 -49 7 -69 15 -19
8 -50 15 -68 15 -18 0 -46 7 -61 15 -16 8 -43 15 -60 15 -16 0 -35 5 -41 11
-6 6 -29 15 -50 19 -45 9 -98 28 -135 46 -14 8 -33 14 -41 14 -9 0 -28 6 -44
14 -30 15 -89 41 -113 50 -8 3 -22 10 -30 15 -8 5 -49 26 -90 46 -41 21 -84
42 -95 49 -42 23 -138 82 -164 98 -14 10 -33 21 -41 25 -8 4 -19 11 -25 15 -5
5 -50 38 -100 75 -223 164 -452 394 -617 616 -37 51 -71 97 -76 102 -4 6 -11
17 -15 25 -9 17 -21 37 -58 95 -14 22 -29 47 -32 55 -4 8 -16 29 -27 45 -11
17 -22 37 -26 45 -3 8 -9 22 -14 30 -5 8 -19 35 -30 60 -12 25 -26 52 -31 60
-5 8 -12 22 -15 30 -9 24 -35 83 -50 113 -8 16 -14 35 -14 44 0 8 -6 27 -14
41 -18 36 -36 89 -45 132 -4 19 -13 45 -19 57 -7 12 -12 32 -12 45 0 13 -7 36
-15 52 -8 15 -15 44 -15 62 0 19 -7 51 -15 71 -8 19 -15 51 -15 70 0 19 -6 61
-14 92 -41 165 -41 727 0 892 8 31 14 73 14 92 0 19 7 51 15 70 8 20 15 52 15
71 0 18 7 47 15 62 8 16 15 43 15 60 0 16 5 35 11 41 6 6 15 29 19 50 9 45 28
98 46 135 8 14 14 33 14 41 0 9 6 28 14 44 15 30 41 89 50 113 3 8 10 22 15
30 5 8 19 35 31 60 11 25 25 52 30 60 5 8 11 22 14 30 4 8 15 29 26 45 11 17
23 37 27 45 3 8 18 33 32 55 37 58 49 78 58 95 4 8 11 20 15 25 5 6 38 51 75
100 164 223 394 452 617 617 50 37 96 71 101 76 6 4 17 11 25 15 17 9 37 21
95 58 22 14 47 29 55 32 8 4 29 16 45 26 28 18 150 80 185 95 8 3 22 10 30 14
8 5 33 17 55 26 22 10 53 24 68 32 16 8 35 14 44 14 8 0 27 6 41 14 37 18 90
37 135 46 21 4 44 13 50 19 6 6 25 11 41 11 17 1 42 7 56 15 14 8 39 14 56 15
17 0 51 7 74 15 23 8 57 15 74 15 17 0 63 6 101 15 144 30 428 41 660 25z"/>
<path d="M2265 4385 c-27 -8 -62 -14 -76 -15 -14 0 -34 -7 -45 -15 -10 -8 -27
-15 -37 -15 -17 0 -51 -15 -97 -42 -8 -4 -27 -13 -42 -19 -16 -6 -28 -15 -28
-20 0 -5 -5 -9 -11 -9 -24 0 -134 -98 -194 -171 -66 -82 -155 -235 -155 -268
0 -10 -5 -22 -11 -28 -6 -6 -15 -29 -20 -50 -4 -21 -12 -56 -18 -78 -34 -132
-41 -192 -41 -327 0 -96 5 -163 15 -201 8 -32 15 -70 15 -85 0 -15 7 -40 15
-56 8 -15 15 -38 15 -51 0 -12 7 -28 15 -35 8 -7 15 -23 15 -35 0 -12 7 -28
15 -35 8 -7 15 -20 15 -30 0 -10 7 -23 15 -30 8 -7 15 -17 15 -22 0 -20 105
-145 166 -198 41 -35 183 -130 194 -130 6 0 18 -4 28 -10 28 -16 103 -41 152
-50 25 -5 61 -14 80 -19 56 -17 427 -14 486 4 27 8 65 15 84 15 19 0 48 7 64
15 15 8 38 15 50 15 11 0 34 7 50 15 15 8 35 15 43 15 9 0 30 9 49 20 29 19
32 24 27 58 -2 20 -9 51 -15 67 -6 17 -14 50 -17 75 -5 40 -9 45 -34 48 -16 2
-39 -4 -52 -12 -13 -9 -35 -16 -47 -16 -13 0 -36 -7 -52 -15 -15 -8 -42 -15
-58 -15 -17 0 -57 -7 -91 -16 -46 -12 -96 -14 -221 -11 -178 4 -241 18 -366
76 -39 18 -36 16 -106 70 -126 97 -209 272 -231 488 -5 46 -3 52 18 64 19 10
167 11 700 6 601 -5 678 -4 683 9 3 9 6 91 6 184 0 123 -4 179 -15 210 -8 23
-15 52 -15 64 0 11 -7 34 -15 50 -8 15 -15 35 -15 43 0 15 -24 75 -41 103 -5
8 -14 26 -19 39 -42 97 -247 301 -304 301 -6 0 -17 5 -24 12 -15 15 -77 38
-132 48 -25 5 -65 13 -90 19 -64 15 -236 12 -295 -4z m233 -241 c37 -9 79 -23
94 -30 14 -8 34 -14 43 -14 22 0 166 -147 186 -190 35 -74 43 -97 57 -150 8
-30 16 -88 19 -128 l5 -72 -539 2 c-471 3 -538 5 -537 18 6 59 40 161 88 260
38 80 36 77 116 159 74 74 158 121 255 141 33 7 65 14 70 15 25 8 82 4 143
-11z"/>
<path d="M3476 4351 c-3 -5 14 -36 39 -70 25 -34 45 -64 45 -67 0 -3 15 -25
33 -48 17 -24 39 -54 47 -66 8 -12 20 -28 25 -34 6 -7 15 -19 20 -28 16 -25
97 -144 164 -238 94 -134 175 -250 186 -268 6 -9 29 -42 53 -74 23 -31 42 -62
42 -68 0 -7 -13 -29 -30 -50 -16 -21 -30 -42 -30 -48 0 -6 -3 -12 -7 -14 -5
-1 -26 -30 -48 -63 -22 -33 -59 -86 -82 -117 -24 -31 -43 -61 -43 -66 0 -6 -3
-12 -7 -14 -5 -1 -21 -21 -36 -43 -39 -54 -120 -173 -132 -193 -5 -9 -14 -21
-20 -28 -5 -6 -17 -22 -25 -34 -8 -12 -29 -41 -46 -64 -17 -22 -56 -79 -86
-126 -31 -47 -66 -96 -77 -109 -12 -14 -20 -29 -18 -35 2 -7 66 -12 181 -14
l177 -2 29 32 c17 18 30 36 30 41 0 5 12 26 28 46 31 41 49 69 59 91 4 8 9 17
13 20 3 3 17 23 30 45 13 22 30 46 37 53 7 7 13 18 13 24 0 5 13 27 28 47 16
20 32 43 35 51 4 8 16 29 27 45 11 17 23 38 26 48 4 9 10 17 14 17 5 0 11 9
15 19 3 11 26 50 50 87 25 38 45 73 45 79 1 14 36 55 48 55 5 0 12 -8 16 -17
3 -10 15 -31 26 -48 11 -16 25 -42 31 -57 6 -16 14 -28 19 -28 4 0 10 -8 14
-17 3 -10 14 -30 23 -45 10 -15 38 -60 62 -100 25 -40 48 -74 53 -76 4 -2 8
-8 8 -13 0 -11 42 -72 53 -77 4 -2 7 -8 7 -14 0 -6 14 -27 30 -48 17 -21 30
-41 30 -45 0 -4 14 -24 30 -45 17 -21 30 -41 30 -44 0 -8 37 -61 69 -98 l24
-28 189 0 189 0 -16 28 c-24 43 -38 64 -67 103 -16 20 -28 40 -28 44 0 5 -53
80 -80 112 -5 7 -10 15 -10 18 0 3 -16 27 -35 53 -47 63 -49 66 -60 84 -5 9
-64 96 -130 193 -66 98 -127 188 -135 200 -8 13 -39 59 -69 102 -30 43 -54 85
-53 94 1 16 46 86 148 226 124 171 151 208 207 287 31 45 60 88 64 96 4 8 12
20 17 26 6 6 18 22 26 34 8 12 29 41 46 64 17 22 42 59 57 82 14 22 31 47 39
55 20 21 48 67 48 79 0 7 -59 10 -182 8 l-183 -3 -138 -205 c-76 -113 -142
-214 -147 -225 -13 -27 -32 -56 -47 -73 -7 -7 -13 -17 -13 -22 0 -5 -19 -37
-43 -72 -23 -35 -51 -80 -62 -101 -22 -42 -52 -47 -70 -12 -6 11 -22 38 -36
60 -14 22 -34 56 -45 75 -10 19 -31 51 -46 71 -16 20 -28 40 -28 44 0 4 -13
24 -30 45 -16 21 -30 41 -30 45 0 4 -13 24 -30 45 -16 21 -30 41 -30 45 0 4
-13 24 -30 45 -16 21 -30 41 -30 45 0 4 -13 24 -30 45 -16 21 -30 41 -30 44 0
4 -17 29 -37 56 l-37 50 -183 0 c-100 0 -184 -4 -187 -9z"/>
</g>
</svg>
