 <svg  version="1.0" xmlns="http://www.w3.org/2000/svg"  width="256.000000pt" height="256.000000pt" viewBox="0 0 256.000000 256.000000"  preserveAspectRatio="xMidYMid meet">  <g transform="translate(0.000000,256.000000) scale(0.100000,-0.100000)" fill="#37af2d" stroke="none"> <path d="M713 2540 c-18 -10 -39 -32 -47 -48 -8 -16 -90 -466 -182 -1000 -160 -924 -167 -971 -151 -995 17 -27 781 -457 859 -484 72 -25 159 -13 253 35 219 112 762 423 779 446 l20 26 -125 732 c-135 794 -130 776 -202 812 -67 32 -97 19 -217 -99 l-105 -104 -100 181 c-116 208 -143 238 -214 238 -62 0 -92 -23 -132 -101 -16 -32 -33 -59 -37 -59 -4 1 -58 91 -121 202 -122 214 -143 238 -211 238 -19 0 -49 -9 -67 -20z m200 -402 c59 -102 107 -191 107 -198 0 -14 -441 -883 -445 -878 -2 2 41 257 95 568 53 311 103 598 110 638 7 41 15 70 19 65 4 -4 56 -92 114 -195z m475 -233 l90 -160 -88 -95 c-49 -52 -222 -228 -386 -390 l-297 -295 55 105 c31 58 160 311 288 564 153 301 235 454 240 445 5 -8 49 -86 98 -174z m578 -703 c58 -343 104 -625 102 -626 -1 -2 -167 -95 -368 -207 -351 -196 -367 -203 -420 -203 -53 0 -69 7 -403 194 l-348 194 328 331 c180 181 476 480 658 663 319 321 330 331 338 305 4 -16 55 -308 113 -651z"/> </g> </svg> 