<?xml version="1.0" standalone="no"?>
<!DOCTYPE svg PUBLIC "-//W3C//DTD SVG 20010904//EN"
 "http://www.w3.org/TR/2001/REC-SVG-20010904/DTD/svg10.dtd">
<svg version="1.0" xmlns="http://www.w3.org/2000/svg"
 width="675.000000pt" height="675.000000pt" viewBox="0 0 675.000000 675.000000"
 preserveAspectRatio="xMidYMid meet">
<metadata>
Created by potrace 1.10, written by Peter Selinger 2001-2011
</metadata>
<g transform="translate(0.000000,675.000000) scale(0.100000,-0.100000)"
fill="#37af2d" stroke="none">
<path d="M1841 5080 c-12 -22 -21 -51 -21 -63 0 -12 -6 -42 -14 -67 -18 -55
-36 -196 -36 -271 1 -75 25 -231 48 -312 25 -87 18 -114 -57 -204 -65 -79 -71
-88 -111 -169 -41 -85 -60 -140 -71 -203 -5 -29 -14 -62 -19 -72 -6 -10 -10
-39 -10 -66 0 -26 -7 -88 -15 -138 -20 -126 -21 -605 0 -690 8 -33 14 -73 15
-89 0 -45 64 -231 101 -296 5 -8 19 -36 31 -62 13 -27 26 -48 29 -48 4 0 19
-21 34 -47 35 -59 200 -224 265 -264 28 -17 50 -34 50 -39 0 -4 8 -10 18 -14
9 -3 31 -14 47 -25 17 -11 64 -36 105 -56 41 -20 87 -43 102 -51 14 -8 35 -14
45 -14 11 0 28 -7 39 -15 10 -8 29 -15 42 -15 13 0 33 -5 44 -11 27 -15 126
-38 203 -48 52 -7 81 -14 153 -37 10 -3 7 -13 -11 -36 -24 -33 -52 -85 -78
-143 -20 -48 -39 -133 -48 -223 -6 -66 -13 -87 -31 -107 -13 -14 -31 -25 -41
-25 -9 0 -34 -8 -55 -17 -57 -24 -361 -24 -418 0 -21 9 -46 17 -55 17 -48 0
-223 111 -301 191 -48 50 -114 128 -120 142 -32 76 -228 297 -264 297 -7 0
-17 5 -24 12 -46 46 -302 86 -367 56 -46 -21 -28 -51 80 -131 38 -29 84 -72
103 -97 19 -25 43 -56 55 -70 24 -28 117 -166 117 -174 0 -3 13 -24 28 -48 16
-24 52 -90 81 -148 78 -156 100 -189 190 -283 75 -79 256 -197 300 -197 7 0
25 -6 39 -14 75 -39 241 -58 432 -51 74 3 152 11 172 17 69 20 67 26 70 -336
l3 -321 675 0 675 0 3 640 c3 688 3 684 -50 840 -37 108 -43 122 -71 158 -44
58 -46 57 103 83 159 26 315 72 428 125 34 16 69 29 76 29 8 0 18 5 21 11 4 5
17 15 28 20 39 18 129 76 195 125 76 58 241 234 265 283 4 9 16 30 27 46 44
69 103 204 120 275 4 19 13 49 18 65 6 17 18 80 27 140 29 190 12 648 -30 845
-8 36 -16 79 -18 95 -3 17 -10 46 -17 65 -33 92 -43 116 -51 130 -5 8 -12 22
-15 30 -3 8 -10 22 -15 30 -5 8 -13 24 -18 35 -5 11 -41 57 -80 102 -39 45
-71 91 -71 102 0 11 6 35 14 53 30 74 45 139 57 248 10 98 10 132 -4 230 -17
122 -30 180 -55 245 -27 69 -32 71 -104 47 -104 -35 -135 -47 -149 -57 -8 -6
-30 -19 -49 -30 -97 -54 -251 -200 -335 -317 -54 -76 -66 -83 -107 -59 -144
85 -261 111 -586 132 -352 23 -864 -23 -962 -86 -8 -5 -28 -17 -45 -25 -16 -9
-40 -22 -53 -30 -26 -17 -20 -21 -102 80 -174 215 -319 326 -507 389 -34 12
-69 21 -77 21 -8 0 -23 -18 -35 -40z"/>
</g>
</svg>
