<?xml version="1.0" standalone="no"?>
<!DOCTYPE svg PUBLIC "-//W3C//DTD SVG 20010904//EN"
 "http://www.w3.org/TR/2001/REC-SVG-20010904/DTD/svg10.dtd">
<svg version="1.0" xmlns="http://www.w3.org/2000/svg"
 width="900.000000pt" height="900.000000pt" viewBox="0 0 900.000000 900.000000"
 preserveAspectRatio="xMidYMid meet">
<metadata>
Created by potrace 1.10, written by Peter Selinger 2001-2011
</metadata>
<g transform="translate(0.000000,900.000000) scale(0.100000,-0.100000)"
fill="#37af2d" stroke="none">
<path d="M4180 8514 c-47 -7 -113 -13 -147 -13 -34 -1 -88 -8 -120 -16 -31 -8
-76 -15 -99 -15 -23 0 -61 -7 -84 -15 -23 -8 -58 -15 -77 -15 -19 0 -43 -5
-54 -11 -11 -6 -41 -14 -67 -19 -61 -11 -120 -27 -212 -57 -41 -14 -88 -27
-105 -30 -16 -3 -39 -12 -50 -19 -11 -8 -29 -14 -41 -14 -12 0 -35 -6 -51 -14
-15 -8 -39 -19 -53 -25 -14 -5 -46 -19 -72 -30 -26 -12 -50 -21 -53 -21 -17 0
-246 -115 -434 -217 -22 -12 -59 -36 -82 -53 -23 -16 -46 -30 -52 -30 -5 0
-26 -13 -47 -30 -21 -16 -41 -30 -45 -30 -3 0 -51 -34 -106 -75 -54 -41 -103
-75 -108 -75 -5 0 -11 -3 -13 -7 -1 -5 -34 -34 -73 -66 -172 -143 -367 -330
-466 -447 -26 -30 -66 -77 -90 -105 -68 -80 -299 -396 -299 -410 0 -2 -12 -21
-26 -42 -14 -21 -30 -47 -35 -58 -5 -11 -18 -33 -28 -50 -23 -35 -45 -76 -90
-165 -18 -36 -37 -72 -42 -80 -5 -8 -12 -22 -15 -30 -3 -8 -11 -28 -19 -45
-21 -49 -51 -117 -69 -160 -9 -22 -21 -48 -26 -57 -6 -10 -10 -26 -10 -37 0
-10 -7 -24 -15 -31 -8 -7 -15 -22 -15 -34 0 -11 -7 -34 -15 -50 -8 -15 -15
-38 -15 -50 0 -12 -6 -30 -14 -41 -7 -11 -16 -33 -18 -50 -3 -16 -10 -43 -16
-60 -12 -36 -30 -105 -41 -160 -5 -22 -13 -60 -19 -85 -30 -121 -42 -182 -42
-218 0 -21 -7 -61 -15 -88 -8 -27 -15 -74 -15 -104 0 -30 -7 -104 -15 -165
-17 -128 -20 -478 -5 -569 6 -34 15 -110 20 -171 15 -181 71 -491 106 -588 8
-20 14 -48 14 -61 0 -13 7 -37 15 -52 8 -16 15 -40 15 -54 0 -14 7 -34 15 -44
8 -11 15 -31 15 -45 0 -14 7 -35 15 -45 8 -11 15 -28 15 -38 0 -9 6 -32 14
-50 8 -18 22 -51 31 -73 28 -67 38 -92 90 -210 23 -51 102 -208 129 -255 14
-25 30 -54 35 -65 5 -11 20 -36 33 -55 13 -19 27 -42 31 -50 37 -74 200 -301
322 -450 156 -189 363 -396 546 -546 89 -72 306 -234 315 -234 3 0 23 -13 44
-30 21 -16 42 -30 47 -30 6 0 28 -12 50 -28 52 -36 74 -50 98 -62 11 -6 47
-26 80 -44 104 -59 327 -166 346 -166 6 0 23 -7 37 -14 15 -8 45 -22 67 -31
22 -9 53 -23 68 -31 16 -8 39 -14 51 -14 12 0 31 -7 42 -15 10 -8 30 -15 44
-15 14 0 36 -7 50 -15 14 -8 33 -14 43 -15 11 0 33 -6 50 -14 37 -15 113 -35
179 -47 26 -4 56 -12 67 -18 11 -6 35 -11 54 -11 19 0 48 -5 65 -11 41 -14
201 -38 332 -49 58 -5 134 -13 170 -19 82 -14 463 -14 527 -1 26 5 104 14 173
20 124 9 211 21 302 41 26 6 71 15 100 19 61 11 148 31 233 55 33 10 81 23
107 30 25 8 56 18 67 24 11 6 30 11 43 11 13 0 32 7 42 15 11 8 30 15 42 15
12 0 35 6 51 14 35 18 83 38 153 66 99 40 264 119 365 176 33 18 69 38 80 44
24 13 47 27 102 63 24 15 47 27 52 27 5 0 11 4 13 8 2 4 21 19 43 32 54 33
254 180 344 254 184 151 394 361 547 547 111 136 281 374 324 454 6 11 19 34
30 50 11 17 25 41 30 55 6 13 14 27 18 30 6 5 19 28 59 105 9 17 19 37 24 45
25 46 93 195 119 260 21 54 31 78 62 150 9 19 19 50 22 67 4 18 12 35 17 38 5
4 9 19 9 34 0 15 7 36 15 47 8 10 15 29 15 42 0 13 5 33 11 44 7 12 17 47 24
77 7 31 21 85 30 121 9 36 20 89 25 118 4 29 13 74 19 100 19 88 31 177 41
297 6 66 15 144 20 174 15 84 12 440 -5 566 -8 61 -15 133 -15 162 0 29 -7 78
-15 110 -8 31 -15 76 -15 99 0 24 -5 55 -10 70 -6 15 -15 52 -20 83 -5 31 -14
76 -20 101 -7 25 -19 70 -27 100 -25 99 -45 164 -59 198 -8 18 -14 41 -14 51
0 10 -7 32 -15 47 -8 16 -15 37 -15 46 0 9 -6 29 -14 45 -8 15 -22 46 -31 68
-9 22 -23 54 -30 70 -7 17 -23 55 -35 85 -33 83 -147 307 -191 375 -10 17 -23
39 -29 50 -6 11 -19 34 -30 50 -11 17 -23 37 -27 45 -14 29 -183 269 -236 335
-189 234 -405 455 -608 621 -93 76 -291 222 -344 254 -22 13 -42 27 -45 30 -3
4 -12 10 -20 14 -17 8 -38 21 -97 59 -24 15 -47 27 -52 27 -5 0 -16 6 -23 13
-8 6 -27 19 -43 28 -114 59 -160 83 -237 118 -74 35 -112 51 -233 100 -11 5
-37 16 -58 25 -21 9 -46 16 -55 16 -10 0 -27 7 -38 15 -10 8 -31 15 -45 15
-14 0 -34 7 -45 15 -10 8 -30 15 -44 15 -14 0 -38 7 -54 15 -15 8 -39 15 -51
15 -13 0 -36 5 -52 11 -37 15 -134 38 -203 48 -30 5 -75 14 -100 19 -78 19
-171 32 -295 42 -66 6 -144 15 -174 20 -77 14 -469 10 -571 -6z m-880 -1664
c6 -121 -2 -114 122 -103 l67 6 3 101 3 101 95 3 c52 2 105 0 118 -3 l22 -5
-2 -333 -3 -332 -109 -3 c-61 -1 -114 2 -119 7 -5 5 -9 53 -8 105 l2 96 -95 0
-95 0 -3 -102 -3 -103 -115 0 -115 0 -5 325 c-4 279 -3 327 10 338 10 9 45 12
120 10 l105 -3 5 -105z m1138 2 c4 -138 2 -140 -101 -144 l-82 -3 -3 -207 c-3
-243 12 -221 -147 -216 l-100 3 -5 214 -5 214 -77 -2 c-115 -3 -118 0 -118
131 0 76 4 108 13 111 6 3 149 5 317 4 l305 -2 3 -103z m333 91 c23 -28 89
-139 89 -152 0 -6 5 -11 10 -11 6 0 10 -6 10 -14 0 -41 25 -16 85 84 l67 111
121 -3 122 -3 0 -335 0 -335 -109 -3 c-67 -2 -113 1 -121 8 -10 8 -12 41 -10
130 3 121 -4 150 -26 108 -7 -12 -17 -28 -23 -34 -6 -7 -27 -37 -45 -68 -19
-31 -40 -56 -45 -56 -12 0 -86 105 -86 120 0 6 -4 10 -8 10 -5 0 -14 12 -21
26 -6 15 -15 24 -18 20 -3 -3 -5 -59 -4 -124 2 -94 -1 -121 -12 -131 -10 -8
-50 -11 -123 -9 l-109 3 -3 329 c-2 257 1 331 10 338 7 4 63 8 123 8 93 0 113
-3 126 -17z m837 -210 l2 -222 158 -3 157 -3 0 -110 0 -110 -269 -3 c-179 -1
-273 1 -280 8 -7 7 -11 121 -12 331 -1 283 1 321 15 329 9 5 63 9 121 7 l105
-2 3 -222z m630 -797 c2 -32 -2 -95 -9 -140 -6 -45 -15 -139 -19 -211 -3 -71
-12 -175 -18 -230 -17 -151 -33 -317 -42 -450 -4 -66 -13 -160 -19 -210 -13
-113 -29 -298 -41 -485 -5 -80 -14 -158 -19 -175 -6 -16 -11 -86 -12 -155 -2
-75 -8 -139 -16 -159 -8 -21 -13 -78 -13 -156 0 -79 -5 -139 -15 -171 -9 -30
-15 -91 -15 -159 0 -61 -7 -137 -15 -170 -8 -33 -14 -110 -15 -170 0 -61 -5
-126 -11 -145 -6 -19 -13 -97 -16 -173 -6 -144 -13 -167 -53 -167 -10 0 -21
-4 -25 -9 -3 -6 -27 -13 -53 -17 -26 -4 -59 -13 -74 -20 -15 -8 -38 -14 -51
-14 -14 0 -38 -7 -53 -15 -16 -8 -41 -15 -55 -15 -15 0 -40 -7 -55 -15 -16 -8
-41 -15 -55 -15 -15 0 -40 -7 -55 -15 -16 -8 -39 -15 -50 -15 -12 0 -38 -7
-57 -15 -20 -8 -47 -15 -61 -15 -13 0 -37 -7 -52 -15 -16 -8 -41 -15 -56 -15
-15 0 -29 -4 -33 -9 -3 -6 -26 -13 -52 -17 -25 -4 -58 -13 -72 -20 -14 -8 -40
-14 -58 -14 -17 0 -34 -4 -38 -9 -3 -6 -27 -13 -53 -17 -26 -4 -56 -13 -67
-20 -11 -8 -33 -14 -50 -14 -16 -1 -41 -7 -55 -15 -14 -8 -37 -14 -51 -15 -15
0 -44 -7 -65 -16 -39 -16 -118 -12 -129 7 -4 5 -21 9 -38 9 -18 0 -45 7 -61
15 -15 8 -41 15 -56 15 -16 0 -41 6 -57 14 -28 14 -79 29 -162 47 -24 5 -49
13 -55 18 -6 4 -31 11 -56 15 -24 4 -49 11 -55 15 -5 5 -29 11 -53 15 -24 3
-51 10 -60 15 -21 10 -91 29 -149 40 -23 4 -48 12 -55 18 -7 6 -31 13 -53 16
-22 2 -53 9 -70 15 -16 6 -57 18 -90 27 -33 9 -81 23 -106 31 -26 7 -55 14
-65 14 -11 0 -32 7 -48 15 -15 8 -34 15 -41 15 -35 0 -45 30 -45 130 0 54 -7
134 -15 177 -8 43 -15 124 -15 180 0 58 -6 127 -15 160 -9 34 -15 101 -15 165
0 60 -6 131 -14 161 -8 30 -15 107 -15 175 -1 67 -6 134 -12 149 -6 15 -13 91
-16 168 -3 77 -11 151 -17 165 -7 14 -13 82 -15 155 -1 72 -6 146 -12 165 -5
19 -14 100 -19 180 -15 221 -29 392 -45 526 -8 67 -15 153 -15 190 -1 38 -7
105 -15 149 -8 44 -15 128 -15 187 0 59 -5 119 -10 134 -6 15 -14 79 -17 142
-5 92 -3 116 8 123 8 5 744 8 1749 6 l1735 -2 3 -59z"/>
<path d="M3414 5247 c-7 -20 16 -324 47 -612 6 -55 15 -156 20 -225 5 -69 13
-147 18 -175 5 -27 10 -98 10 -157 1 -96 3 -108 20 -118 13 -7 269 -10 759
-10 l740 0 6 -26 c4 -14 0 -74 -8 -133 -8 -58 -17 -160 -21 -226 -8 -165 -13
-184 -55 -206 -19 -11 -49 -19 -67 -19 -17 0 -34 -4 -38 -9 -3 -5 -20 -12 -38
-16 -30 -6 -70 -18 -177 -51 -25 -8 -52 -14 -61 -14 -9 0 -30 -7 -47 -16 -29
-14 -35 -14 -64 0 -17 9 -42 16 -56 16 -13 0 -38 6 -55 14 -32 13 -84 28 -167
48 -25 6 -49 14 -55 18 -5 4 -31 10 -56 14 -70 10 -86 34 -93 136 -4 47 -9
115 -12 153 l-6 67 -209 0 -209 0 0 -46 c0 -25 5 -55 11 -66 6 -12 13 -73 16
-137 2 -64 6 -125 9 -136 4 -11 11 -78 17 -150 12 -128 12 -130 37 -133 24 -3
54 -11 165 -45 28 -9 68 -19 90 -23 22 -3 45 -10 50 -14 6 -4 29 -10 53 -13
24 -2 49 -10 55 -16 6 -6 27 -11 47 -11 20 0 45 -7 56 -15 10 -8 33 -15 49
-15 17 0 41 -7 55 -15 14 -8 40 -14 58 -15 18 0 43 -5 54 -11 34 -18 134 -36
154 -28 11 4 31 8 45 8 15 1 40 8 55 16 16 8 43 15 59 15 17 1 41 7 55 15 14
8 37 14 51 15 15 0 40 7 55 15 16 8 41 15 57 15 15 0 35 4 45 10 9 5 37 14 62
19 67 15 132 33 155 42 19 8 58 19 157 42 36 8 49 17 57 36 5 14 12 95 16 179
3 85 10 163 14 175 5 12 11 93 15 180 4 87 11 169 16 183 6 14 10 81 10 150 0
72 6 153 15 192 17 82 24 242 10 242 -5 0 -352 0 -770 0 -418 0 -765 4 -771 8
-23 14 -44 115 -44 208 0 56 -6 108 -15 134 -19 54 -19 85 1 104 14 15 101 16
835 16 451 0 824 2 828 5 5 2 6 15 4 29 -3 13 2 82 11 154 9 72 16 156 16 187
l0 55 -1070 0 c-879 0 -1072 -2 -1076 -13z"/>
</g>
</svg>
