<?xml version="1.0" standalone="no"?>
<!DOCTYPE svg PUBLIC "-//W3C//DTD SVG 20010904//EN"
 "http://www.w3.org/TR/2001/REC-SVG-20010904/DTD/svg10.dtd">
<svg version="1.0" xmlns="http://www.w3.org/2000/svg"
 width="900.000000pt" height="900.000000pt" viewBox="0 0 900.000000 900.000000"
 preserveAspectRatio="xMidYMid meet">
<metadata>
Created by potrace 1.10, written by Peter Selinger 2001-2011
</metadata>
<g transform="translate(0.000000,900.000000) scale(0.100000,-0.100000)"
fill="#37af2d" stroke="none">
<path d="M6515 7671 c-520 -51 -996 -302 -1274 -670 -226 -300 -330 -622 -331
-1021 0 -282 43 -518 138 -745 25 -60 59 -132 74 -158 15 -26 28 -50 28 -52 0
-2 21 -34 46 -72 238 -349 646 -640 1256 -897 18 -8 63 -28 100 -45 37 -17 72
-31 77 -31 5 0 24 -8 43 -17 48 -24 55 -27 164 -73 378 -160 589 -283 707
-410 115 -124 157 -236 157 -410 -1 -155 -43 -264 -145 -378 -82 -91 -234
-177 -387 -217 -226 -61 -599 -44 -808 36 -30 11 -66 24 -80 28 -51 17 -191
98 -270 158 -119 91 -276 264 -373 410 -63 96 -88 113 -117 78 -7 -8 -16 -15
-20 -15 -5 0 -52 -26 -107 -58 -54 -32 -105 -61 -113 -65 -8 -4 -28 -16 -45
-27 -16 -11 -37 -23 -45 -27 -8 -4 -70 -40 -138 -80 -68 -40 -125 -73 -127
-73 -3 0 -299 -173 -325 -190 -8 -6 -25 -14 -37 -20 -31 -13 -29 -39 11 -112
189 -351 527 -690 876 -881 142 -77 224 -115 353 -163 20 -8 54 -20 75 -28 34
-13 84 -27 217 -62 73 -19 184 -41 310 -61 160 -26 751 -26 905 0 299 50 502
111 719 214 305 145 564 372 717 628 16 28 35 59 42 70 7 11 17 30 22 43 5 13
20 46 33 75 45 98 55 129 100 297 9 30 18 85 22 123 5 48 11 67 21 67 21 0 21
505 0 513 -9 4 -17 27 -20 64 -25 243 -130 513 -286 735 -246 349 -677 640
-1409 953 -74 31 -142 61 -150 65 -9 5 -41 18 -71 30 -30 12 -80 34 -110 47
-30 14 -80 36 -110 50 -243 109 -385 197 -490 302 -90 91 -130 167 -155 296
-37 190 14 366 144 496 123 121 253 168 470 169 262 0 433 -70 602 -248 67
-70 179 -221 179 -241 0 -4 10 -17 23 -29 l22 -21 88 57 c48 31 135 88 194
126 60 39 134 87 166 108 32 21 60 38 62 38 2 0 33 20 69 45 37 25 68 45 70
45 3 0 33 19 68 42 35 24 70 47 80 53 157 95 178 111 178 134 0 9 -33 66 -72
126 -221 334 -444 539 -753 690 -158 78 -307 124 -555 170 -97 19 -569 29
-705 16z"/>
<path d="M2555 7598 c-3 -7 -6 -1039 -8 -2293 -4 -2278 -4 -2280 -25 -2365
-41 -167 -83 -251 -167 -335 -66 -66 -140 -106 -247 -136 -101 -28 -361 -28
-453 0 -230 71 -376 209 -560 529 -26 46 -54 86 -62 89 -7 3 -134 -67 -281
-156 -147 -90 -276 -168 -287 -174 -11 -7 -38 -23 -60 -37 -22 -14 -47 -29
-55 -33 -8 -4 -28 -16 -45 -27 -16 -11 -39 -24 -50 -30 -11 -6 -33 -19 -50
-30 -16 -11 -39 -24 -50 -30 -11 -6 -32 -18 -46 -28 -15 -9 -45 -28 -68 -41
-22 -14 -41 -31 -41 -40 0 -37 177 -330 256 -422 22 -25 55 -65 74 -89 59 -72
249 -238 350 -305 149 -99 313 -180 455 -226 152 -48 192 -58 390 -96 134 -25
647 -25 795 1 161 28 325 69 420 106 30 12 66 25 80 30 40 12 230 114 287 153
226 153 399 356 521 607 40 83 54 118 91 230 43 131 71 263 96 460 14 112 16
359 13 2410 l-3 2285 -633 3 c-501 2 -634 0 -637 -10z"/>
</g>
</svg>
