<?xml version="1.0" standalone="no"?>
<!DOCTYPE svg PUBLIC "-//W3C//DTD SVG 20010904//EN"
 "http://www.w3.org/TR/2001/REC-SVG-20010904/DTD/svg10.dtd">
<svg version="1.0" xmlns="http://www.w3.org/2000/svg"
 width="798.000000pt" height="900.000000pt" viewBox="0 0 798.000000 900.000000"
 preserveAspectRatio="xMidYMid meet">
<metadata>
Created by potrace 1.10, written by Peter Selinger 2001-2011
</metadata>
<g transform="translate(0.000000,900.000000) scale(0.100000,-0.100000)"
fill="#37af2d" stroke="none">
<path d="M3890 8985 c0 -19 -40 -35 -89 -35 -20 0 -46 -7 -57 -15 -10 -8 -29
-15 -41 -15 -12 0 -25 -5 -28 -11 -4 -5 -17 -15 -28 -20 -12 -5 -38 -19 -57
-30 -19 -12 -55 -32 -80 -46 -25 -13 -58 -33 -75 -44 -16 -10 -37 -22 -45 -26
-8 -3 -33 -18 -55 -32 -62 -40 -70 -44 -122 -71 -26 -13 -66 -36 -88 -50 -67
-41 -72 -44 -122 -70 -26 -13 -62 -35 -78 -47 -17 -12 -41 -26 -55 -32 -32
-14 -102 -55 -158 -92 -24 -16 -47 -29 -52 -29 -5 0 -26 -12 -47 -26 -21 -14
-47 -30 -58 -35 -11 -5 -33 -18 -50 -28 -31 -20 -72 -44 -135 -77 -19 -11 -37
-22 -40 -26 -3 -4 -17 -12 -30 -17 -25 -11 -32 -15 -105 -61 -22 -14 -47 -29
-55 -33 -8 -4 -37 -21 -65 -38 -27 -16 -63 -37 -80 -45 -16 -8 -43 -23 -60
-34 -16 -10 -48 -28 -70 -40 -22 -12 -59 -35 -83 -51 -24 -16 -47 -29 -52 -29
-5 0 -28 -12 -52 -27 -69 -45 -82 -52 -103 -63 -11 -6 -42 -24 -70 -41 -27
-16 -63 -37 -80 -45 -16 -8 -43 -23 -60 -34 -16 -11 -37 -23 -45 -27 -8 -3
-33 -18 -55 -32 -62 -40 -70 -44 -122 -71 -26 -13 -66 -36 -88 -50 -58 -36
-69 -42 -117 -69 -24 -13 -62 -36 -86 -52 -24 -16 -49 -29 -56 -29 -8 0 -19
-7 -26 -15 -7 -8 -17 -15 -22 -15 -6 0 -29 -13 -52 -28 -22 -15 -48 -31 -56
-35 -8 -4 -37 -21 -65 -37 -27 -17 -63 -37 -80 -45 -16 -9 -43 -24 -60 -35
-16 -10 -48 -28 -70 -40 -104 -57 -238 -195 -271 -280 -3 -8 -12 -28 -19 -45
-7 -16 -19 -46 -26 -65 -12 -29 -14 -378 -17 -2103 -2 -1825 0 -2071 13 -2097
8 -16 15 -38 15 -48 0 -20 53 -126 76 -153 8 -8 14 -19 14 -23 0 -10 123 -136
134 -136 4 0 25 -12 45 -28 20 -15 54 -36 76 -47 22 -11 58 -31 80 -45 22 -14
49 -31 60 -38 11 -6 31 -17 45 -23 13 -5 27 -13 30 -17 5 -7 23 -17 113 -64
20 -11 40 -24 43 -29 3 -5 11 -9 19 -9 8 0 33 -13 57 -29 55 -37 126 -78 158
-91 13 -6 27 -14 30 -18 3 -4 16 -13 30 -19 14 -7 48 -26 75 -43 28 -16 57
-32 65 -36 8 -3 22 -10 30 -15 8 -5 22 -12 30 -15 8 -3 22 -10 30 -15 8 -5 22
-12 30 -15 8 -3 31 -12 50 -21 85 -37 143 -59 195 -73 17 -5 44 -13 60 -19
152 -53 495 -53 650 1 17 5 41 12 55 15 14 2 39 11 55 18 44 20 123 58 152 74
34 18 207 189 224 223 104 199 132 285 149 458 11 106 15 3943 4 3985 -12 49
-42 55 -292 55 l-228 0 -32 -33 -32 -33 0 -1943 c0 -1630 -2 -1947 -14 -1969
-7 -15 -23 -47 -34 -72 -26 -56 -133 -160 -193 -187 -114 -53 -230 -67 -325
-38 -27 8 -59 15 -71 15 -12 0 -34 6 -50 14 -15 8 -50 24 -78 37 -27 12 -52
25 -55 28 -3 4 -16 12 -30 18 -14 7 -47 26 -75 42 -27 17 -61 36 -75 41 -13 6
-27 14 -30 18 -3 4 -16 13 -30 19 -14 7 -47 26 -75 43 -27 16 -57 33 -65 37
-8 4 -33 19 -55 33 -61 38 -76 47 -125 72 -25 12 -61 33 -80 46 -19 13 -44 28
-55 33 -11 5 -33 18 -50 28 -16 11 -54 32 -83 47 -29 15 -67 43 -83 61 l-29
34 0 1947 1 1947 24 28 c14 15 57 46 97 68 40 22 87 49 103 59 17 10 48 28 70
40 22 12 59 35 83 51 24 16 49 29 56 29 8 0 19 7 26 15 7 8 16 15 21 15 5 0
28 12 52 27 55 36 67 43 124 74 26 15 64 36 83 48 19 11 44 25 55 31 11 6 43
24 70 41 28 16 64 37 80 45 17 8 44 23 60 34 17 11 37 23 45 27 8 3 33 18 55
32 60 38 68 43 147 85 40 21 80 45 89 52 8 8 20 14 26 14 6 0 16 7 23 15 7 8
18 15 26 15 7 0 30 12 51 26 21 14 47 30 58 35 11 5 34 18 50 28 17 11 48 29
70 41 22 12 59 35 83 51 24 16 49 29 57 29 8 0 16 4 19 9 3 5 24 18 46 30 21
11 59 33 82 48 24 15 63 38 87 51 24 13 58 33 75 43 17 10 40 23 51 29 11 6
43 24 70 41 28 16 64 37 80 45 17 8 44 23 60 34 17 11 37 23 45 27 13 6 140
79 180 104 8 5 35 20 60 34 25 14 59 34 75 45 17 10 50 30 75 43 25 14 61 34
80 46 19 11 44 25 55 31 11 6 43 24 70 41 28 16 61 35 75 42 14 6 27 15 30 19
3 4 17 12 30 17 14 6 32 15 40 21 44 28 150 89 183 105 34 16 43 16 79 4 22
-7 46 -18 52 -24 7 -5 27 -18 46 -29 68 -37 105 -58 135 -76 17 -11 44 -26 60
-34 17 -8 53 -29 80 -45 28 -17 57 -34 65 -38 8 -4 31 -18 50 -31 19 -13 44
-28 55 -33 11 -5 34 -18 50 -29 17 -11 44 -26 60 -34 17 -8 53 -29 80 -45 28
-17 61 -36 75 -41 13 -6 27 -14 30 -18 3 -4 16 -13 30 -19 14 -7 48 -26 75
-42 28 -17 59 -35 70 -41 11 -6 36 -20 55 -31 19 -12 55 -32 80 -46 25 -13 59
-33 75 -43 17 -11 50 -31 75 -45 25 -14 52 -29 60 -34 8 -5 51 -30 95 -56 44
-25 87 -50 95 -55 8 -6 26 -15 40 -21 13 -5 27 -13 30 -17 3 -4 16 -13 30 -19
14 -7 48 -26 75 -43 28 -16 57 -33 65 -37 8 -4 31 -18 50 -31 19 -13 44 -28
55 -33 11 -5 27 -13 35 -18 8 -5 22 -12 30 -15 8 -4 29 -15 45 -26 17 -11 39
-24 50 -29 11 -5 37 -21 58 -35 21 -14 42 -26 47 -26 5 0 15 -6 22 -13 7 -7
24 -18 38 -24 14 -7 48 -26 75 -42 28 -17 59 -35 70 -41 11 -6 47 -26 80 -45
33 -19 69 -40 80 -45 11 -6 34 -19 50 -30 17 -11 39 -24 50 -29 11 -5 37 -21
58 -35 21 -14 44 -26 52 -26 8 0 18 -6 22 -13 4 -7 19 -18 33 -24 14 -7 48
-26 75 -42 28 -17 59 -35 71 -40 11 -5 50 -27 85 -48 35 -22 71 -42 79 -46 8
-4 29 -16 45 -27 17 -10 63 -37 103 -59 40 -22 84 -52 97 -67 l25 -27 0 -1950
0 -1950 -39 -36 c-22 -21 -59 -47 -83 -59 -24 -13 -56 -32 -73 -42 -32 -20
-87 -51 -145 -83 -19 -10 -48 -27 -65 -38 -16 -10 -39 -23 -50 -28 -11 -5 -36
-20 -55 -33 -19 -13 -42 -27 -50 -31 -8 -4 -37 -21 -65 -37 -27 -17 -61 -36
-75 -43 -14 -6 -27 -15 -30 -19 -3 -4 -17 -12 -30 -18 -14 -5 -47 -24 -75 -41
-27 -16 -61 -35 -75 -42 -14 -6 -31 -17 -38 -24 -7 -7 -17 -13 -22 -13 -5 0
-28 -12 -52 -27 -69 -45 -82 -52 -103 -63 -11 -6 -42 -24 -70 -41 -27 -16 -63
-37 -80 -45 -16 -8 -43 -23 -60 -34 -16 -11 -37 -23 -45 -27 -8 -3 -33 -18
-55 -32 -54 -35 -66 -41 -127 -75 -29 -16 -64 -36 -78 -43 -14 -8 -38 -23 -55
-33 -16 -11 -37 -23 -45 -27 -14 -6 -145 -82 -180 -104 -8 -5 -24 -14 -35 -19
-11 -6 -33 -19 -50 -30 -16 -11 -40 -24 -52 -29 -11 -5 -24 -15 -28 -20 -3 -6
-13 -11 -21 -11 -9 0 -30 -11 -47 -24 -18 -14 -43 -30 -57 -35 -14 -6 -38 -20
-55 -31 -16 -11 -39 -24 -50 -29 -11 -5 -36 -20 -55 -33 -19 -13 -55 -34 -80
-46 -49 -25 -64 -34 -125 -72 -22 -14 -47 -29 -55 -33 -8 -4 -37 -21 -65 -37
-27 -17 -61 -36 -75 -43 -14 -6 -29 -17 -33 -24 -4 -7 -16 -13 -26 -13 -10 0
-24 -7 -31 -15 -7 -8 -17 -15 -22 -15 -6 0 -29 -13 -52 -28 -22 -15 -48 -31
-56 -35 -8 -4 -37 -21 -65 -37 -27 -17 -63 -37 -80 -45 -16 -9 -43 -24 -60
-35 -92 -58 -177 -100 -205 -100 -32 0 -128 49 -257 133 -24 15 -47 27 -52 27
-6 0 -14 6 -18 13 -4 7 -19 18 -33 25 -34 16 -96 52 -148 85 -23 15 -61 38
-83 50 -48 26 -61 34 -114 68 -22 14 -47 29 -55 33 -17 8 -38 21 -97 59 -44
28 -125 38 -138 16 -4 -5 -17 -14 -28 -20 -12 -5 -29 -13 -37 -18 -8 -5 -22
-12 -30 -15 -8 -4 -35 -17 -59 -31 -24 -14 -50 -25 -56 -25 -7 0 -18 -6 -24
-14 -6 -8 -24 -16 -39 -19 -15 -3 -52 -15 -82 -27 -30 -12 -64 -24 -75 -27
-52 -14 -95 -38 -95 -54 0 -14 103 -91 150 -113 8 -3 29 -15 45 -26 17 -11 41
-24 54 -30 13 -6 38 -21 55 -33 32 -23 58 -39 91 -57 11 -6 34 -19 50 -30 17
-11 42 -25 58 -31 15 -6 27 -15 27 -20 0 -5 5 -9 11 -9 14 0 133 -71 137 -82
2 -4 8 -8 14 -8 6 0 44 -20 85 -45 40 -25 76 -45 78 -45 2 0 24 -14 48 -30 25
-17 47 -30 50 -30 4 0 25 -13 49 -29 24 -16 61 -39 83 -51 22 -12 54 -30 70
-40 90 -56 164 -81 273 -93 103 -11 293 1 352 23 54 19 181 84 255 130 17 10
48 28 70 40 22 12 59 35 83 51 24 16 49 29 56 29 8 0 19 7 26 15 7 8 17 15 22
15 6 0 29 13 52 28 22 15 48 31 56 35 8 4 38 21 65 37 28 17 61 36 75 43 14 6
27 15 30 19 3 4 17 12 30 17 14 6 34 17 45 23 20 13 87 55 117 73 9 5 39 22
65 36 26 15 64 36 83 48 19 11 44 25 55 31 11 6 43 24 70 41 28 16 61 35 75
42 14 6 27 14 30 18 3 3 17 12 31 20 47 25 123 69 154 89 31 19 84 50 145 83
19 10 49 27 65 38 17 10 37 22 45 26 8 3 33 18 55 32 60 38 68 43 147 85 40
21 79 43 87 49 16 13 40 27 101 59 25 13 63 35 85 49 58 36 75 46 125 74 25
14 59 34 75 45 17 11 37 22 45 26 8 3 22 10 30 15 8 5 35 20 60 34 25 14 59
34 75 45 17 11 39 24 50 29 11 5 36 20 55 33 19 13 55 34 80 46 49 25 64 34
125 72 22 14 47 29 55 33 8 4 38 21 65 37 28 17 61 36 75 43 14 6 27 15 30 19
3 4 17 12 30 17 26 11 33 16 108 64 24 15 46 27 50 27 4 0 34 23 66 51 65 55
140 151 169 214 10 22 25 53 33 68 8 16 14 44 14 63 0 42 15 74 35 74 13 0 15
251 15 2005 0 1790 -2 2005 -15 2005 -18 0 -35 39 -35 83 0 18 -7 41 -15 51
-8 11 -15 28 -15 37 0 55 -158 247 -245 299 -22 13 -42 26 -45 29 -3 4 -26 17
-52 31 -27 13 -48 28 -48 32 0 5 -9 8 -19 8 -11 0 -23 5 -26 11 -4 5 -17 15
-28 20 -12 5 -38 19 -57 31 -19 11 -53 31 -75 42 -22 12 -58 34 -80 48 -64 40
-128 77 -155 88 -13 6 -27 14 -30 18 -3 4 -16 13 -30 19 -14 7 -47 26 -75 43
-27 16 -57 33 -65 37 -8 4 -31 18 -50 31 -19 13 -44 28 -55 33 -11 5 -33 18
-50 29 -16 11 -43 26 -60 34 -16 8 -52 29 -80 45 -27 17 -59 35 -70 41 -11 6
-38 21 -60 33 -22 13 -56 32 -75 43 -19 11 -53 31 -75 45 -62 40 -127 78 -155
89 -13 6 -27 14 -30 18 -3 4 -16 13 -30 19 -14 7 -47 26 -75 43 -27 16 -57 33
-65 37 -8 4 -33 19 -55 33 -61 38 -76 47 -125 72 -25 12 -61 33 -80 46 -19 13
-44 28 -55 33 -11 5 -33 18 -50 28 -16 11 -52 32 -80 47 -74 40 -105 58 -123
69 -58 35 -100 62 -117 73 -11 6 -29 16 -41 21 -11 5 -50 27 -85 48 -35 22
-71 42 -79 46 -8 4 -28 16 -45 26 -16 11 -52 32 -80 47 -107 59 -113 62 -180
105 -22 14 -47 29 -55 32 -8 4 -28 16 -45 27 -16 11 -43 26 -60 34 -16 8 -52
29 -80 45 -27 17 -57 34 -65 38 -8 4 -30 17 -48 29 -30 21 -56 34 -155 77 -21
9 -51 17 -67 17 -41 0 -80 17 -80 35 0 12 -17 15 -100 15 -83 0 -100 -3 -100
-15z"/>
<path d="M4635 6260 c-27 -5 -75 -9 -105 -9 -30 -1 -77 -8 -104 -16 -27 -8
-64 -15 -81 -15 -18 0 -49 -7 -68 -15 -20 -8 -49 -15 -64 -15 -15 0 -37 -7
-47 -15 -11 -8 -30 -15 -42 -15 -12 0 -35 -6 -51 -14 -15 -8 -46 -22 -68 -31
-133 -56 -243 -127 -335 -217 -65 -63 -121 -130 -133 -158 -4 -8 -16 -28 -27
-45 -11 -16 -22 -37 -25 -45 -3 -8 -13 -28 -21 -43 -7 -16 -14 -35 -14 -42 0
-8 -6 -29 -14 -47 -24 -57 -46 -199 -46 -298 0 -101 23 -254 46 -308 8 -18 14
-39 14 -46 0 -22 60 -127 105 -186 39 -50 110 -120 122 -120 3 0 22 -13 43
-30 45 -36 206 -120 230 -120 9 0 21 -5 27 -11 6 -6 26 -14 44 -19 19 -4 48
-13 64 -18 32 -11 110 -32 185 -51 25 -6 74 -16 110 -21 36 -5 78 -14 94 -19
15 -6 51 -11 79 -11 29 0 79 -7 112 -15 33 -8 96 -14 140 -15 45 0 105 -6 135
-14 30 -7 98 -16 150 -19 52 -3 109 -10 125 -16 17 -5 66 -15 110 -21 44 -6
105 -15 136 -19 30 -5 65 -13 77 -20 11 -6 33 -11 49 -11 15 -1 39 -7 53 -15
14 -8 36 -14 48 -15 13 0 36 -6 50 -13 15 -8 45 -22 67 -33 61 -28 122 -78
163 -131 l37 -48 -1 -135 c-1 -134 -1 -136 -35 -200 -36 -67 -120 -162 -161
-180 -12 -6 -43 -22 -67 -35 -24 -14 -50 -25 -56 -25 -7 0 -26 -7 -41 -15 -16
-8 -38 -15 -49 -15 -11 0 -38 -7 -60 -15 -22 -8 -60 -14 -85 -15 -25 0 -70 -7
-100 -15 -66 -18 -622 -22 -680 -5 -19 6 -74 15 -123 20 -48 5 -102 13 -120
18 -17 6 -59 18 -92 27 -33 9 -67 21 -75 26 -8 5 -22 12 -30 15 -8 3 -22 10
-30 15 -8 5 -22 12 -30 16 -56 25 -177 143 -200 196 -6 12 -14 29 -19 37 -32
54 -67 166 -74 235 -8 75 -23 101 -67 114 -49 14 -420 15 -469 0 -69 -21 -85
-86 -56 -224 8 -38 15 -90 15 -115 1 -25 7 -56 15 -70 8 -14 14 -35 15 -47 0
-12 7 -39 17 -60 26 -61 77 -167 85 -178 5 -5 29 -38 54 -73 43 -59 191 -202
217 -211 7 -2 28 -17 48 -32 20 -16 44 -29 52 -29 8 0 20 -7 27 -15 7 -8 20
-15 30 -15 10 0 23 -7 30 -15 7 -8 18 -15 25 -15 8 0 27 -7 44 -15 17 -8 45
-22 62 -30 17 -8 37 -15 44 -15 8 0 26 -5 42 -12 35 -14 121 -36 188 -47 28
-5 66 -14 85 -20 19 -6 55 -11 80 -11 25 0 72 -7 105 -15 87 -21 753 -21 840
0 33 8 79 14 101 15 23 0 61 7 84 15 23 8 54 15 68 15 28 0 120 25 170 46 18
8 43 14 55 14 12 0 31 7 41 15 11 8 27 15 37 15 9 0 22 7 29 15 7 8 23 15 36
15 13 0 24 4 24 10 0 5 11 12 25 16 13 3 29 12 36 20 6 8 18 14 26 14 7 0 19
5 26 10 7 6 44 34 82 62 146 109 247 239 320 413 39 95 75 285 75 400 0 118
-50 369 -78 397 -7 7 -12 20 -12 29 0 9 -7 22 -15 29 -8 7 -15 17 -15 22 0 12
-56 85 -85 111 -11 10 -39 36 -62 58 -23 21 -44 39 -47 39 -3 0 -22 12 -43 26
-21 14 -47 30 -58 35 -11 5 -27 13 -35 17 -46 26 -83 42 -97 42 -8 0 -27 6
-41 14 -35 17 -88 36 -132 46 -19 4 -48 13 -65 18 -36 13 -111 30 -180 42 -27
4 -63 13 -78 19 -16 6 -48 11 -71 11 -24 0 -65 7 -92 15 -27 8 -72 15 -100 15
-28 0 -73 7 -100 15 -27 8 -78 15 -114 15 -36 0 -81 5 -100 11 -19 6 -72 14
-118 19 -46 5 -104 13 -130 19 -51 11 -155 28 -243 41 -30 4 -65 12 -77 19
-11 6 -36 11 -54 11 -18 1 -44 7 -58 15 -14 8 -36 14 -48 15 -13 0 -36 6 -50
13 -15 8 -49 25 -76 38 -27 13 -67 45 -89 71 -54 62 -68 127 -54 247 11 98 51
177 116 233 49 41 173 108 203 108 13 0 32 7 42 15 11 8 30 15 43 15 13 0 49
7 81 14 134 34 630 34 782 0 36 -8 77 -14 91 -14 14 0 34 -7 45 -15 10 -8 29
-15 42 -15 29 0 155 -63 207 -102 22 -17 60 -55 84 -83 50 -57 121 -186 121
-219 0 -11 7 -30 15 -40 8 -11 15 -34 15 -51 0 -17 11 -47 25 -68 l26 -37 247
0 c199 0 252 3 268 14 17 13 19 25 16 130 -2 72 -8 129 -17 151 -8 19 -15 49
-15 67 0 18 -7 42 -15 52 -8 11 -15 30 -15 42 0 12 -7 35 -15 51 -7 15 -24 48
-35 73 -50 103 -108 186 -181 257 -76 74 -192 163 -212 163 -8 0 -20 7 -27 15
-7 8 -18 15 -25 15 -7 0 -18 7 -25 15 -7 8 -23 15 -35 15 -12 0 -28 7 -35 15
-7 8 -22 15 -34 15 -12 0 -31 7 -42 15 -10 8 -30 15 -44 15 -14 0 -36 7 -50
15 -14 8 -36 14 -50 15 -14 0 -45 6 -70 14 -58 18 -170 37 -290 48 -131 12
-564 17 -625 8z"/>
</g>
</svg>
