<?xml version="1.0" standalone="no"?>
<!DOCTYPE svg PUBLIC "-//W3C//DTD SVG 20010904//EN"
 "http://www.w3.org/TR/2001/REC-SVG-20010904/DTD/svg10.dtd">
<svg version="1.0" xmlns="http://www.w3.org/2000/svg"
 width="675.000000pt" height="675.000000pt" viewBox="0 0 675.000000 675.000000"
 preserveAspectRatio="xMidYMid meet">
<metadata>
Created by potrace 1.10, written by Peter Selinger 2001-2011
</metadata>
<g transform="translate(0.000000,675.000000) scale(0.100000,-0.100000)"
fill="#37af2d" stroke="none">
<path d="M4485 6453 c-131 -21 -298 -64 -347 -89 -14 -8 -33 -14 -42 -14 -9 0
-28 -8 -42 -17 -22 -14 -30 -15 -58 -4 -17 7 -47 17 -66 21 -19 4 -48 13 -65
18 -167 57 -468 65 -660 18 -143 -35 -318 -114 -419 -190 -31 -24 -41 -27 -55
-18 -9 7 -23 15 -31 18 -8 3 -30 12 -48 19 -102 45 -144 60 -197 75 -16 5 -43
13 -60 18 -52 18 -118 33 -180 42 -33 5 -76 14 -95 20 -45 13 -418 13 -456 0
-16 -6 -58 -14 -94 -19 -66 -10 -131 -25 -185 -43 -16 -5 -43 -14 -60 -18 -45
-13 -113 -39 -169 -64 -28 -13 -58 -26 -66 -30 -8 -3 -28 -15 -45 -26 -16 -11
-36 -23 -44 -27 -8 -3 -22 -13 -30 -20 -9 -8 -35 -29 -59 -48 -57 -45 -126
-127 -159 -189 -89 -168 -145 -298 -163 -376 -4 -19 -12 -55 -18 -80 -44 -182
-54 -416 -27 -605 8 -55 15 -126 15 -157 0 -31 4 -68 10 -83 5 -14 14 -67 19
-118 14 -137 40 -288 73 -427 6 -25 14 -63 19 -85 10 -53 28 -120 45 -175 8
-25 14 -55 14 -66 0 -12 7 -35 15 -50 8 -16 15 -39 15 -52 0 -12 7 -39 15 -59
8 -19 15 -44 15 -54 0 -10 6 -33 14 -51 8 -18 29 -80 46 -138 18 -58 38 -121
45 -140 7 -19 18 -51 24 -70 7 -19 16 -48 21 -65 13 -46 31 -97 46 -127 8 -14
14 -37 14 -50 0 -13 5 -29 11 -35 6 -6 14 -26 19 -44 11 -47 50 -157 77 -219
8 -19 22 -51 30 -70 8 -19 19 -42 24 -50 5 -8 19 -35 32 -60 74 -146 243 -349
329 -397 18 -10 39 -22 47 -28 8 -5 41 -15 75 -21 97 -18 169 -3 285 61 29 16
139 122 152 148 16 28 29 20 29 -19 0 -35 17 -74 52 -122 22 -30 118 -102 158
-118 8 -4 43 -19 78 -35 34 -16 69 -29 78 -29 9 0 40 -7 70 -16 95 -27 352
-10 449 31 58 25 110 50 158 78 26 15 54 27 62 27 19 0 23 -77 30 -515 2 -207
9 -385 15 -405 6 -19 15 -62 20 -95 12 -74 29 -140 46 -182 8 -17 14 -36 14
-43 0 -10 12 -38 41 -90 5 -8 19 -35 31 -59 27 -52 156 -186 190 -196 13 -4
30 -13 38 -20 8 -7 26 -15 40 -18 14 -3 39 -10 55 -15 77 -27 184 -44 245 -40
76 6 172 25 217 44 17 8 37 14 44 14 17 0 192 86 239 118 95 63 218 182 244
234 3 7 15 27 26 43 11 17 22 37 26 45 3 8 11 26 18 40 27 55 63 199 77 305 5
44 14 96 19 115 6 19 10 64 10 100 0 65 21 305 41 455 5 44 14 132 19 195 4
63 12 128 16 143 6 26 10 28 38 22 144 -29 299 -40 382 -26 82 14 169 38 206
57 14 8 33 14 41 14 9 0 28 6 44 14 15 8 60 29 98 48 114 54 240 175 297 286
26 52 24 131 -4 175 -43 65 -72 77 -184 77 -54 0 -133 -7 -175 -14 -41 -8
-136 -16 -210 -18 -121 -3 -137 -1 -161 17 -30 22 -36 56 -13 75 8 7 15 16 15
21 0 4 20 37 45 73 25 37 45 69 45 72 0 3 20 32 45 64 25 32 45 62 45 66 0 7
103 223 136 286 8 14 14 33 14 41 0 8 7 20 15 27 8 7 15 21 15 30 0 10 7 32
15 49 8 17 22 45 30 62 8 17 15 37 15 44 0 7 6 26 14 42 27 54 46 104 46 119
0 9 6 28 14 42 15 30 33 81 46 127 8 28 14 48 41 128 6 17 15 48 19 67 4 19
13 49 18 65 6 17 18 57 27 90 9 33 23 83 30 110 8 28 16 64 18 80 2 17 10 53
17 80 43 175 58 248 70 335 4 36 14 86 20 111 14 57 8 296 -10 359 -22 79 -83
220 -123 285 -44 71 -147 195 -237 286 -147 148 -236 214 -420 308 -8 5 -31
15 -50 23 -19 8 -51 21 -70 30 -54 23 -102 39 -140 47 -19 4 -51 13 -70 18
-131 41 -390 53 -555 26z m418 -268 c32 -8 70 -15 85 -15 15 0 40 -7 56 -15
15 -8 38 -15 50 -15 12 0 31 -7 42 -15 10 -8 27 -15 36 -15 9 0 29 -7 45 -15
15 -8 64 -31 108 -52 81 -38 176 -97 230 -143 77 -65 245 -241 258 -270 4 -8
16 -28 27 -45 11 -16 22 -37 26 -45 3 -8 12 -31 19 -50 25 -63 37 -247 25
-372 -6 -62 -16 -133 -21 -158 -6 -25 -14 -67 -18 -95 -9 -57 -28 -136 -43
-180 -6 -16 -13 -48 -17 -70 -4 -22 -12 -56 -18 -75 -6 -19 -19 -62 -28 -95
-9 -33 -21 -73 -27 -90 -5 -16 -14 -50 -19 -75 -5 -24 -14 -49 -19 -54 -6 -6
-10 -20 -10 -33 0 -12 -6 -37 -14 -55 -19 -47 -36 -98 -46 -137 -5 -18 -13
-38 -19 -44 -6 -6 -11 -19 -11 -29 0 -9 -6 -32 -14 -50 -8 -18 -22 -53 -31
-78 -9 -25 -23 -58 -31 -73 -8 -16 -14 -35 -14 -44 0 -8 -6 -27 -13 -41 -15
-28 -41 -86 -51 -112 -3 -8 -10 -22 -15 -30 -5 -8 -12 -22 -15 -30 -3 -8 -10
-22 -15 -30 -5 -8 -19 -35 -31 -60 -11 -25 -25 -52 -30 -60 -5 -8 -11 -23 -14
-32 -8 -28 -26 -21 -26 10 1 15 7 54 15 87 19 78 19 276 0 380 -19 108 -20
456 0 590 8 55 15 130 15 167 0 37 5 100 10 140 14 104 -9 260 -61 408 -23 65
-102 225 -129 260 -15 19 -29 40 -31 45 -2 6 -40 63 -84 128 -44 65 -84 126
-90 134 -5 9 -17 24 -25 32 -9 9 -30 37 -48 61 -39 54 -169 183 -232 230 -25
18 -49 38 -55 45 -18 20 -133 105 -142 105 -15 0 -54 46 -46 53 3 4 18 7 32 7
14 1 49 7 76 15 71 19 323 20 398 0z m-1218 -56 c22 -6 58 -14 80 -18 22 -4
50 -13 62 -19 12 -7 32 -12 45 -12 13 0 33 -7 44 -15 10 -8 28 -15 40 -15 11
0 29 -7 40 -15 10 -8 26 -15 34 -15 13 0 185 -83 235 -113 113 -69 320 -250
412 -360 28 -33 111 -151 138 -195 6 -10 22 -33 38 -53 15 -20 27 -40 27 -44
0 -4 12 -24 28 -44 53 -70 122 -203 122 -235 0 -22 -4 -23 -123 -29 -131 -6
-196 -22 -297 -73 -92 -47 -188 -128 -211 -179 -5 -11 -13 -27 -18 -35 -39
-66 -43 -94 -42 -271 0 -130 4 -186 16 -218 8 -24 15 -55 15 -70 0 -14 7 -35
15 -45 8 -11 15 -30 15 -42 0 -12 6 -35 14 -51 8 -15 22 -48 31 -73 21 -54 42
-105 61 -143 8 -16 14 -37 14 -47 0 -9 7 -23 15 -30 8 -7 15 -20 15 -29 0 -9
7 -25 15 -35 8 -11 15 -28 15 -37 0 -10 7 -31 15 -48 8 -17 22 -45 30 -62 8
-17 15 -37 15 -44 0 -7 6 -26 14 -42 8 -15 21 -44 29 -63 32 -77 44 -107 59
-140 9 -19 19 -42 22 -50 3 -8 10 -22 15 -30 5 -8 12 -22 15 -30 3 -8 10 -22
15 -30 5 -8 12 -22 15 -30 8 -20 25 -47 59 -91 15 -20 27 -42 27 -47 0 -6 6
-15 14 -19 7 -4 17 -18 20 -31 6 -16 3 -24 -11 -29 -30 -11 -99 -88 -120 -134
-28 -63 -53 -150 -53 -190 0 -19 -5 -52 -11 -74 -6 -22 -14 -71 -19 -110 -4
-38 -12 -108 -18 -155 -17 -128 -33 -324 -42 -525 -5 -99 -14 -207 -19 -240
-6 -33 -11 -86 -11 -119 0 -63 -23 -181 -46 -234 -8 -18 -14 -39 -14 -48 0
-31 -65 -146 -107 -188 -24 -24 -67 -60 -96 -79 -59 -38 -180 -97 -201 -97 -7
0 -30 -7 -49 -15 -26 -11 -73 -15 -166 -15 -151 0 -183 11 -262 91 -55 57
-139 220 -139 272 0 12 -7 45 -16 72 -12 41 -17 146 -24 570 -13 780 -18 912
-37 975 -51 177 -121 247 -270 270 -28 4 -57 11 -62 15 -17 10 -13 124 6 180
9 28 29 78 45 113 15 34 28 67 28 73 0 6 6 23 13 37 35 69 59 138 73 212 2 14
11 59 19 100 24 120 32 372 19 595 -7 110 -17 216 -23 235 -6 19 -11 49 -11
67 0 37 -37 143 -71 203 -5 8 -14 26 -20 40 -14 34 -184 200 -204 200 -9 0
-26 6 -38 12 -31 17 -123 37 -179 37 -64 1 -185 -18 -226 -35 -18 -8 -43 -14
-55 -14 -12 0 -31 -7 -41 -15 -11 -8 -30 -15 -42 -15 -12 0 -27 -7 -34 -15
-14 -17 -36 -20 -45 -5 -3 5 1 37 9 72 18 75 34 154 45 225 5 28 13 58 17 65
4 7 11 30 15 53 4 22 12 56 19 75 94 262 189 405 386 580 53 47 112 90 123 90
6 0 11 4 11 9 0 5 35 26 78 46 42 21 89 44 104 51 14 8 34 14 45 14 10 0 36 7
58 15 48 17 348 20 410 4z m-1543 -34 c24 -8 56 -15 71 -15 15 0 44 -7 64 -15
19 -8 45 -15 57 -15 12 0 30 -6 41 -14 11 -7 31 -16 45 -19 31 -7 98 -31 105
-39 3 -3 -17 -34 -45 -69 -28 -35 -59 -75 -70 -89 -46 -58 -77 -109 -109 -175
-18 -38 -39 -82 -47 -97 -8 -14 -14 -35 -14 -45 0 -10 -6 -27 -14 -38 -7 -11
-16 -33 -19 -50 -6 -30 -17 -74 -42 -170 -17 -64 -36 -160 -41 -205 -3 -19
-11 -69 -19 -110 -35 -185 -51 -485 -35 -635 21 -203 24 -392 6 -504 -28 -180
-15 -413 30 -519 8 -18 14 -38 14 -44 0 -11 53 -120 83 -173 21 -37 111 -155
117 -155 13 0 30 -49 20 -55 -6 -4 -38 -43 -72 -88 -34 -45 -72 -93 -84 -107
-12 -14 -53 -61 -91 -105 -156 -183 -288 -321 -332 -343 l-37 -20 -38 23 c-21
13 -54 38 -73 56 -32 31 -131 157 -160 204 -24 39 -83 161 -83 172 0 6 -6 24
-14 40 -13 26 -22 49 -56 143 -6 19 -16 51 -20 70 -4 19 -14 51 -20 70 -7 19
-18 51 -25 70 -7 19 -18 51 -25 70 -7 19 -15 49 -18 65 -2 17 -11 39 -18 50
-8 11 -14 30 -14 42 0 12 -6 37 -14 55 -21 51 -37 99 -46 138 -4 19 -13 49
-18 65 -24 70 -36 112 -43 150 -10 51 -27 117 -45 175 -8 25 -14 58 -14 73 0
16 -5 37 -11 48 -6 11 -14 41 -19 67 -13 69 -29 140 -46 198 -8 28 -14 65 -14
82 0 17 -5 43 -11 59 -6 15 -14 57 -19 93 -5 36 -13 94 -19 130 -34 208 -41
291 -41 462 0 135 4 198 15 234 8 27 15 63 15 79 1 17 7 41 15 55 8 14 14 35
15 47 0 20 6 36 45 128 85 198 184 316 315 376 25 12 52 25 60 30 8 5 22 12
30 15 130 50 259 83 370 95 116 12 412 2 462 -16z m2928 -1415 c13 -13 18 -28
15 -47 -16 -93 -25 -165 -25 -211 0 -29 -7 -96 -16 -150 -17 -102 -14 -310 6
-457 13 -99 13 -447 -1 -482 -6 -15 -14 -48 -18 -73 -3 -25 -11 -44 -16 -42
-10 2 -32 40 -59 104 -30 69 -49 113 -62 146 -7 18 -20 48 -29 67 -8 19 -21
50 -29 68 -8 17 -22 50 -32 72 -9 22 -24 56 -32 75 -9 19 -22 51 -30 70 -9 19
-22 51 -30 70 -8 19 -21 48 -28 63 -8 16 -14 36 -14 45 0 9 -7 26 -15 36 -8
11 -15 29 -15 40 0 12 -7 30 -15 40 -8 11 -15 31 -15 45 -1 14 -7 37 -15 51
-10 18 -14 59 -15 141 0 136 16 186 77 240 91 79 167 107 296 108 84 1 100 -2
117 -19z m-2191 -27 c95 -30 154 -108 184 -243 37 -165 47 -274 47 -498 0
-309 -30 -457 -136 -675 -8 -16 -14 -35 -14 -42 0 -8 -6 -29 -14 -47 -24 -57
-38 -120 -45 -198 l-6 -75 -35 1 c-19 1 -51 7 -70 14 -19 7 -39 15 -45 16 -5
2 -17 8 -25 13 -8 5 -22 12 -30 15 -8 4 -28 15 -45 26 -16 11 -37 23 -45 27
-39 18 -148 140 -188 211 -17 30 -39 94 -62 177 -25 89 -26 274 -4 445 17 131
16 216 -6 487 l-13 162 24 24 c33 32 122 87 141 87 9 0 21 7 28 15 7 8 21 15
32 15 11 0 28 5 39 11 11 6 41 14 67 19 26 5 65 13 87 18 60 14 78 14 134 -5z
m-237 -1979 c77 -39 91 -44 111 -44 28 -1 89 -31 94 -46 2 -7 -8 -25 -23 -40
-14 -16 -31 -36 -38 -44 -19 -26 -93 -80 -109 -80 -8 0 -20 -7 -27 -15 -7 -8
-20 -15 -29 -15 -9 0 -25 -7 -35 -15 -11 -8 -32 -15 -46 -15 -14 0 -31 -5 -37
-11 -6 -6 -35 -14 -64 -19 -72 -12 -138 -29 -171 -46 -28 -15 -58 -18 -58 -6
0 4 12 18 27 32 14 14 50 54 78 90 29 36 64 77 78 92 13 15 46 55 73 90 89
118 106 126 176 92z m2561 -101 c151 -97 288 -116 480 -68 17 5 27 3 27 -4 0
-13 -36 -51 -49 -51 -5 0 -24 -8 -43 -17 -18 -9 -45 -22 -60 -30 -14 -7 -34
-13 -45 -13 -10 0 -36 -7 -58 -15 -53 -19 -190 -19 -279 1 -39 8 -87 18 -106
22 -34 7 -35 9 -38 55 -4 58 27 117 61 117 12 0 31 7 41 15 25 19 19 20 69
-12z m-2018 -31 c31 -23 45 -72 45 -164 0 -83 -3 -95 -23 -114 -54 -49 -147
-113 -212 -143 -38 -18 -85 -40 -103 -49 -40 -19 -316 -22 -334 -4 -14 14 46
52 82 52 14 0 34 7 44 15 11 8 27 15 35 15 18 0 136 58 161 78 8 7 35 29 59
48 43 34 141 154 141 172 0 5 7 15 15 22 8 7 15 21 15 31 0 35 47 62 75 41z"/>
<path d="M4805 4560 c-16 -4 -46 -8 -66 -9 -48 -1 -84 -38 -70 -72 5 -13 22
-36 37 -50 53 -49 110 -47 165 5 59 56 74 97 42 114 -29 15 -76 20 -108 12z"/>
<path d="M2738 4439 c-31 -33 -23 -72 23 -118 42 -42 60 -47 139 -41 83 6 143
111 79 140 -8 4 -29 14 -47 23 -49 25 -171 22 -194 -4z"/>
</g>
</svg>
