 <svg  version="1.0" xmlns="http://www.w3.org/2000/svg"  width="1200.000000pt" height="1200.000000pt" viewBox="0 0 1200.000000 1200.000000"  preserveAspectRatio="xMidYMid meet">  <g transform="translate(0.000000,1200.000000) scale(0.100000,-0.100000)" fill="#37af2d" stroke="none"> <path d="M3745 10850 c-211 -22 -410 -117 -565 -271 -87 -86 -101 -102 -157 -186 -44 -67 -123 -224 -123 -245 0 -8 -4 -18 -9 -24 -15 -16 -67 -193 -82 -274 -43 -247 -53 -359 -54 -565 0 -239 24 -518 67 -760 5 -33 14 -85 18 -115 4 -30 13 -75 18 -100 6 -25 18 -81 27 -125 9 -44 22 -102 30 -130 24 -90 23 -108 -8 -123 -26 -12 -84 -31 -170 -53 -21 -5 -45 -13 -55 -18 -9 -5 -46 -18 -82 -29 -105 -34 -154 -51 -172 -62 -10 -6 -25 -10 -34 -10 -9 0 -28 -6 -42 -14 -15 -8 -47 -21 -72 -31 -105 -39 -217 -91 -400 -184 -210 -106 -211 -107 -345 -195 -202 -133 -407 -311 -506 -441 -13 -16 -26 -32 -30 -35 -13 -10 -109 -155 -109 -164 0 -5 -6 -17 -13 -25 -29 -34 -96 -218 -109 -296 -25 -159 -27 -191 -18 -269 21 -162 34 -220 71 -306 123 -284 295 -478 664 -748 34 -25 103 -68 125 -78 8 -4 22 -13 30 -20 42 -36 539 -284 569 -284 5 0 22 -6 38 -14 51 -27 101 -46 116 -46 9 0 18 -4 22 -9 3 -5 20 -13 37 -17 18 -3 39 -10 48 -15 17 -10 90 -36 135 -49 40 -11 92 -29 133 -46 18 -8 42 -14 53 -14 11 0 30 -5 42 -12 12 -6 38 -14 57 -17 31 -6 35 -10 38 -41 2 -19 -3 -60 -11 -90 -35 -129 -94 -425 -107 -540 -4 -36 -13 -101 -19 -145 -34 -256 -48 -562 -32 -720 6 -60 15 -150 20 -200 5 -49 14 -110 20 -135 5 -25 15 -67 21 -95 24 -108 27 -119 67 -230 15 -41 104 -224 126 -260 29 -47 99 -135 144 -181 53 -54 136 -124 147 -124 4 0 22 -11 39 -24 35 -26 180 -96 199 -96 7 0 30 -6 53 -14 167 -57 427 -57 645 0 148 39 220 63 273 90 16 8 33 14 38 14 8 0 119 48 159 69 243 127 287 153 450 262 91 60 311 222 341 251 8 7 37 31 64 53 83 66 101 82 181 155 156 143 234 210 244 210 10 0 88 -67 244 -210 80 -73 98 -89 181 -155 27 -22 56 -46 64 -53 60 -57 380 -283 516 -364 141 -84 408 -218 434 -218 5 0 22 -6 38 -14 53 -27 125 -51 273 -90 218 -57 478 -57 645 0 23 8 46 14 53 14 19 0 164 70 199 96 17 13 35 24 39 24 24 0 174 144 237 230 55 73 58 78 116 195 45 93 57 120 91 215 30 87 76 308 86 420 3 41 10 111 14 155 16 157 2 487 -31 730 -6 44 -15 109 -19 145 -12 106 -68 393 -101 520 -7 25 -12 67 -13 95 -1 49 -1 50 34 55 19 4 45 12 57 18 12 7 31 12 42 12 11 0 35 6 53 14 41 17 93 35 133 46 45 13 118 39 135 49 9 5 30 12 48 15 17 4 34 12 37 17 4 5 13 9 22 9 15 0 65 19 116 46 16 8 33 14 38 14 30 0 527 248 569 284 8 7 22 16 30 20 22 10 91 53 125 78 227 166 382 306 483 438 116 151 209 344 232 480 32 189 32 217 2 405 -13 78 -80 262 -109 296 -7 8 -13 20 -13 25 0 9 -96 154 -109 164 -4 3 -17 19 -30 35 -115 150 -381 372 -613 510 -141 84 -492 255 -638 310 -25 10 -57 23 -72 31 -14 8 -33 14 -42 14 -9 0 -24 4 -34 10 -18 11 -67 28 -172 62 -36 11 -73 24 -82 29 -10 5 -34 13 -55 18 -86 22 -144 41 -170 53 -31 15 -32 33 -8 123 8 28 21 86 30 130 9 44 21 100 27 125 5 25 14 70 18 100 4 30 13 82 18 115 43 242 67 521 67 760 -1 206 -11 318 -54 565 -15 81 -67 258 -82 274 -5 6 -9 16 -9 23 0 23 -72 167 -119 238 -62 94 -73 108 -161 194 -175 173 -381 262 -640 276 -217 12 -413 -21 -665 -112 -69 -25 -282 -122 -315 -143 -8 -5 -28 -16 -45 -24 -16 -8 -51 -28 -77 -43 -132 -79 -193 -117 -198 -122 -3 -3 -13 -10 -22 -16 -74 -44 -313 -223 -458 -343 -98 -82 -209 -181 -288 -257 -46 -44 -92 -80 -101 -80 -10 0 -57 36 -103 80 -84 80 -202 185 -288 257 -145 120 -384 299 -458 343 -9 6 -19 13 -22 16 -5 5 -66 43 -198 122 -26 15 -60 35 -77 43 -16 8 -37 19 -45 24 -35 22 -248 118 -315 143 -279 101 -495 132 -740 107z m320 -446 c110 -17 200 -42 292 -81 17 -7 34 -13 37 -13 10 0 266 -128 301 -151 17 -10 39 -23 50 -29 75 -40 379 -250 405 -280 3 -3 37 -30 75 -60 39 -30 75 -60 80 -65 6 -6 39 -36 75 -66 36 -30 70 -58 76 -64 6 -5 56 -52 112 -104 56 -52 102 -99 102 -106 0 -6 -14 -27 -31 -46 -63 -69 -275 -315 -298 -344 -12 -16 -37 -46 -54 -65 -18 -19 -57 -66 -87 -105 -30 -38 -57 -72 -61 -75 -7 -6 -28 -34 -196 -261 -67 -90 -130 -175 -141 -189 -17 -22 -33 -27 -123 -39 -57 -7 -144 -17 -194 -21 -49 -5 -124 -13 -165 -20 -41 -6 -120 -18 -175 -26 -55 -8 -127 -20 -160 -25 -33 -6 -85 -15 -116 -19 -31 -4 -79 -12 -105 -18 -27 -6 -87 -18 -134 -27 -47 -9 -113 -23 -146 -31 -71 -18 -114 -16 -124 6 -8 15 -23 83 -39 170 -5 25 -13 65 -19 90 -13 50 -32 149 -38 195 -3 17 -11 71 -19 120 -37 239 -45 354 -45 625 0 279 5 332 47 515 51 226 151 408 275 502 92 69 151 96 258 113 41 7 80 14 85 15 13 4 86 -4 200 -21z m4111 11 c136 -24 204 -54 301 -132 84 -69 179 -224 222 -363 45 -149 51 -170 51 -194 0 -13 7 -57 15 -97 12 -54 15 -140 15 -348 1 -272 -8 -385 -45 -626 -8 -49 -16 -103 -19 -120 -6 -46 -25 -145 -38 -195 -6 -25 -14 -65 -19 -90 -16 -88 -31 -155 -39 -170 -9 -18 -83 -19 -145 -2 -22 6 -78 18 -125 27 -47 9 -107 21 -134 27 -26 6 -74 14 -105 18 -31 4 -83 13 -116 19 -33 5 -105 17 -160 25 -55 8 -134 20 -175 26 -41 7 -115 15 -165 20 -49 4 -137 14 -194 21 -90 12 -106 17 -123 39 -11 14 -74 99 -141 189 -168 227 -189 255 -196 261 -4 3 -31 37 -61 75 -30 39 -69 86 -87 105 -17 19 -42 49 -54 65 -23 29 -235 275 -298 344 -17 19 -31 40 -31 46 0 7 46 54 102 106 56 52 106 99 112 104 6 6 40 34 76 64 36 30 70 60 75 66 6 5 42 35 80 65 39 30 72 57 75 60 26 30 330 240 405 280 11 6 34 19 50 29 45 29 292 151 306 151 6 0 23 6 37 14 81 41 211 72 417 99 17 2 33 5 36 6 4 0 46 -6 95 -14z m-2040 -1513 c71 -81 147 -170 169 -197 22 -27 54 -65 70 -84 17 -20 46 -56 65 -81 18 -25 38 -49 45 -55 33 -30 106 -138 103 -153 -3 -15 -16 -16 -148 -12 -207 7 -903 5 -983 -4 -64 -6 -67 -6 -67 14 0 19 73 126 105 155 7 6 27 30 45 55 19 25 48 61 65 81 16 19 48 57 70 84 118 145 301 345 315 345 9 0 75 -67 146 -148z m614 -1038 c107 -9 201 -21 207 -26 12 -10 104 -143 112 -163 2 -5 24 -38 48 -73 23 -35 43 -65 43 -67 0 -2 19 -32 42 -67 24 -35 47 -71 53 -80 5 -10 44 -73 84 -140 41 -68 81 -134 89 -148 7 -14 22 -38 32 -55 11 -16 26 -43 34 -60 8 -16 29 -52 45 -80 17 -27 37 -63 45 -80 9 -16 35 -66 60 -110 24 -44 69 -129 101 -190 31 -60 60 -117 65 -125 39 -69 100 -205 100 -223 0 -20 -130 -285 -223 -457 -20 -36 -52 -96 -73 -135 -61 -115 -75 -139 -95 -170 -10 -16 -22 -37 -26 -45 -4 -8 -24 -44 -46 -79 -21 -35 -43 -74 -48 -85 -5 -12 -18 -34 -29 -51 -11 -16 -24 -39 -30 -50 -6 -11 -18 -32 -28 -46 -9 -15 -42 -67 -71 -115 -30 -49 -74 -117 -98 -152 -24 -35 -43 -65 -43 -66 0 -12 -136 -203 -152 -214 -20 -14 -80 -18 -711 -41 -235 -9 -354 -7 -964 18 -232 9 -251 13 -277 60 -6 11 -33 53 -61 93 -27 40 -52 78 -55 83 -3 6 -30 48 -61 95 -30 47 -73 114 -95 149 -21 35 -47 75 -56 90 -10 14 -22 35 -28 46 -6 11 -19 34 -30 50 -11 17 -24 39 -29 51 -5 11 -27 50 -48 85 -22 35 -42 71 -46 79 -4 8 -16 29 -26 45 -20 31 -34 55 -95 170 -21 39 -53 99 -73 135 -89 164 -223 437 -223 455 0 19 176 376 266 540 25 44 51 94 60 110 8 17 28 53 45 80 16 28 37 64 45 80 8 17 23 44 34 60 10 17 25 41 32 55 8 14 48 80 89 148 40 67 79 130 84 140 6 9 29 45 53 80 23 35 42 65 42 67 0 2 20 32 43 67 24 35 46 68 48 73 8 20 100 153 112 163 49 40 1327 59 1727 26z m-2306 -82 c3 -5 -5 -24 -17 -43 -12 -19 -26 -41 -32 -50 -43 -69 -263 -437 -268 -449 -4 -8 -11 -22 -17 -30 -22 -35 -88 -149 -112 -195 -14 -27 -42 -79 -62 -115 -20 -36 -48 -89 -62 -117 -26 -55 -59 -71 -70 -35 -3 9 -11 31 -18 47 -8 17 -21 50 -31 75 -9 25 -23 59 -31 75 -7 17 -16 42 -20 58 -3 15 -10 30 -15 33 -5 3 -9 13 -9 22 0 9 -7 30 -15 46 -8 15 -15 33 -15 38 0 6 -6 24 -14 41 -8 18 -16 41 -19 52 -6 23 -33 100 -46 130 -34 83 -63 187 -65 230 l-1 40 57 7 c32 4 67 12 77 18 11 5 31 10 46 10 14 0 54 6 88 14 79 18 176 36 247 46 68 9 183 28 275 44 85 16 142 19 149 8z m3229 -6 c115 -20 222 -38 287 -46 30 -4 82 -13 115 -19 33 -7 94 -18 135 -26 41 -8 86 -17 100 -19 14 -3 48 -10 75 -16 28 -7 61 -14 74 -16 20 -4 22 -9 18 -42 -7 -46 -41 -160 -68 -227 -13 -30 -40 -107 -46 -130 -3 -11 -11 -34 -19 -52 -8 -17 -14 -35 -14 -41 0 -5 -7 -23 -15 -38 -8 -16 -15 -37 -15 -46 0 -9 -4 -19 -9 -22 -5 -3 -12 -18 -15 -33 -4 -16 -13 -41 -20 -58 -8 -16 -22 -50 -31 -75 -10 -25 -23 -58 -31 -75 -7 -16 -15 -38 -18 -47 -11 -36 -44 -20 -70 35 -14 28 -42 81 -62 117 -20 36 -48 88 -62 115 -24 46 -89 160 -112 195 -6 8 -14 24 -19 36 -8 17 -53 96 -101 174 -18 30 -155 253 -165 269 -6 9 -20 31 -32 50 -36 56 -20 61 120 37z m-4611 -283 c10 -9 18 -25 18 -36 0 -10 6 -33 14 -50 7 -18 23 -66 36 -107 13 -41 26 -79 30 -85 4 -5 10 -21 13 -35 7 -34 35 -111 47 -132 6 -10 10 -26 10 -36 0 -10 7 -27 15 -38 8 -10 15 -26 15 -35 0 -9 9 -38 21 -65 27 -66 34 -81 54 -134 9 -25 23 -58 30 -75 7 -16 30 -70 50 -120 21 -49 48 -115 62 -145 13 -30 30 -68 37 -85 7 -16 23 -52 36 -78 25 -55 23 -71 -22 -167 -64 -138 -90 -199 -148 -345 -18 -44 -36 -89 -42 -99 -6 -11 -14 -31 -18 -45 -5 -14 -18 -51 -30 -81 -12 -30 -25 -66 -30 -80 -5 -14 -18 -50 -30 -80 -31 -80 -80 -220 -89 -255 -5 -16 -13 -41 -19 -55 -5 -14 -18 -52 -27 -85 -10 -33 -21 -67 -25 -75 -10 -21 -63 -24 -99 -6 -16 9 -39 16 -50 16 -11 0 -35 6 -53 14 -42 17 -94 35 -133 46 -16 5 -55 18 -85 30 -30 12 -64 24 -75 27 -11 3 -33 11 -50 18 -16 7 -50 21 -75 30 -25 10 -60 24 -77 32 -18 7 -47 20 -65 28 -61 25 -363 176 -393 196 -16 10 -37 22 -45 25 -27 12 -153 97 -235 158 -44 33 -125 105 -180 160 -133 134 -196 231 -244 373 -27 79 -29 235 -5 309 83 255 296 482 654 695 137 81 491 259 516 259 3 0 20 6 37 14 30 12 48 19 155 60 23 9 59 22 80 30 20 8 82 29 137 46 55 18 115 38 133 46 18 8 43 14 55 14 12 0 29 5 37 10 21 14 31 12 52 -7z m5948 -3 c19 -4 49 -13 65 -19 17 -6 77 -27 135 -46 58 -19 130 -44 160 -55 30 -12 66 -25 80 -30 24 -7 51 -18 117 -46 17 -8 34 -14 37 -14 8 0 120 -52 266 -123 276 -136 514 -297 666 -451 67 -68 173 -213 194 -266 6 -14 14 -34 19 -45 47 -104 56 -271 20 -378 -48 -142 -111 -239 -244 -373 -55 -55 -136 -127 -180 -160 -82 -61 -208 -146 -235 -158 -8 -3 -28 -15 -45 -25 -30 -20 -332 -171 -393 -196 -18 -8 -47 -21 -65 -28 -17 -8 -52 -22 -77 -32 -25 -9 -58 -23 -75 -30 -16 -7 -39 -15 -50 -18 -11 -3 -45 -15 -75 -27 -30 -12 -68 -25 -85 -30 -39 -11 -91 -29 -133 -46 -18 -8 -42 -14 -53 -14 -11 0 -34 -7 -50 -16 -36 -18 -89 -15 -99 6 -4 8 -15 42 -25 75 -9 33 -22 71 -27 85 -6 14 -14 39 -19 55 -9 35 -58 175 -89 255 -12 30 -25 66 -30 80 -5 14 -18 50 -30 80 -12 30 -25 67 -30 81 -4 14 -12 34 -18 45 -5 10 -18 39 -27 64 -17 44 -28 70 -57 140 -25 60 -44 104 -61 140 -96 211 -95 206 -67 267 13 26 29 62 36 78 7 17 24 55 37 85 14 30 35 80 47 110 12 30 29 70 36 87 26 59 42 97 59 143 20 53 27 68 54 134 12 27 21 56 21 65 0 9 7 25 15 35 8 11 15 28 15 38 0 10 4 26 10 36 12 21 40 98 47 132 3 14 9 30 13 35 4 6 17 44 30 85 13 41 29 89 36 107 8 17 14 39 14 49 0 28 31 56 55 49 11 -4 36 -10 55 -15z m-5154 -1877 c9 -27 12 -34 47 -98 18 -33 51 -94 74 -135 22 -41 50 -91 61 -110 12 -19 28 -48 36 -65 8 -16 29 -52 45 -80 17 -27 35 -59 41 -70 6 -11 19 -33 30 -50 11 -16 23 -37 27 -45 3 -8 18 -33 32 -55 36 -56 49 -77 61 -100 6 -11 18 -32 28 -47 51 -79 102 -168 102 -178 0 -18 -171 0 -390 41 -30 6 -73 12 -95 15 -39 5 -147 25 -235 45 -25 6 -70 14 -100 19 -31 4 -73 15 -93 24 -42 17 -42 19 -12 96 7 19 22 64 34 100 34 109 64 195 116 330 9 25 24 63 32 85 35 93 46 122 58 150 15 35 41 102 49 128 3 9 15 17 26 17 11 0 23 -8 26 -17z m4320 0 c8 -26 34 -93 49 -128 14 -34 41 -103 60 -155 7 -19 20 -54 29 -77 43 -115 66 -178 85 -233 67 -198 90 -273 86 -280 -6 -10 -99 -40 -125 -40 -12 0 -49 -6 -83 -14 -164 -38 -204 -46 -232 -46 -16 0 -55 -7 -85 -15 -30 -8 -70 -15 -88 -15 -18 0 -65 -6 -105 -14 -110 -22 -227 -30 -227 -16 0 10 51 99 102 178 10 15 22 36 28 47 12 23 25 44 61 100 14 22 29 47 32 55 4 8 16 29 27 45 11 17 24 39 30 50 6 11 24 43 41 70 16 28 37 64 45 80 8 17 24 46 36 65 11 19 39 69 61 110 23 41 56 102 74 135 34 62 40 74 48 100 6 21 44 19 51 -2z m-4743 -1322 c205 -45 443 -90 527 -101 30 -4 82 -12 115 -18 126 -22 498 -70 595 -77 41 -3 84 -8 95 -11 11 -3 107 -122 213 -263 106 -142 201 -267 210 -277 9 -11 33 -39 52 -64 43 -55 260 -310 311 -365 93 -100 118 -131 119 -142 0 -14 -4 -19 -101 -108 -142 -130 -212 -191 -355 -311 -83 -68 -264 -200 -349 -254 -116 -73 -238 -142 -330 -187 -60 -30 -123 -61 -138 -69 -16 -8 -33 -14 -39 -14 -5 0 -24 -6 -41 -13 -35 -15 -106 -36 -204 -61 -88 -22 -330 -22 -398 0 -77 26 -115 45 -178 92 -66 48 -101 86 -149 158 -53 82 -109 208 -128 294 -4 19 -12 55 -18 80 -35 145 -42 232 -42 501 0 271 6 362 46 624 25 163 66 376 90 461 8 28 14 62 14 77 0 14 7 33 16 41 18 19 14 18 67 7z m5181 -7 c9 -8 16 -27 16 -41 0 -15 6 -49 14 -77 24 -85 65 -298 90 -461 40 -266 46 -346 47 -616 0 -269 -8 -363 -43 -509 -6 -25 -14 -61 -18 -80 -12 -53 -34 -112 -79 -209 -75 -161 -208 -280 -377 -334 -70 -23 -309 -24 -397 -1 -98 25 -169 46 -204 61 -17 7 -36 13 -41 13 -6 0 -23 6 -39 14 -15 8 -78 39 -138 69 -92 45 -214 114 -330 187 -85 54 -276 193 -336 244 -19 17 -57 49 -84 71 -75 61 -145 122 -284 250 -97 89 -101 94 -101 108 1 11 26 42 119 142 51 55 268 310 311 365 19 25 43 53 52 64 9 10 104 135 210 277 106 141 202 260 213 263 11 3 54 8 95 11 97 7 469 55 595 77 33 6 85 14 115 18 30 3 84 12 120 19 160 30 319 62 395 80 57 13 62 13 79 -5z m-2017 -261 c2 -6 -11 -29 -30 -50 -18 -21 -55 -67 -82 -103 -27 -36 -54 -69 -60 -75 -7 -5 -27 -30 -45 -55 -50 -66 -220 -264 -309 -360 -28 -30 -51 -58 -51 -62 0 -5 -13 -8 -30 -8 -16 0 -30 3 -30 8 0 4 -19 27 -43 52 -62 66 -277 318 -316 370 -19 25 -39 50 -46 55 -6 6 -33 39 -60 75 -27 36 -64 82 -82 103 -18 20 -33 43 -33 50 0 18 1211 18 1217 0z"/> <path d="M5880 7105 c-126 -16 -193 -36 -298 -86 -97 -47 -181 -107 -257 -184 -60 -60 -115 -129 -115 -144 0 -6 -4 -11 -9 -11 -5 0 -14 -12 -20 -27 -7 -16 -19 -41 -28 -58 -25 -46 -53 -122 -74 -205 -21 -85 -26 -325 -8 -395 6 -22 14 -56 19 -75 18 -76 36 -117 97 -220 42 -73 55 -90 133 -173 355 -380 985 -380 1340 0 78 83 91 100 133 173 61 103 79 144 97 220 5 19 13 53 19 75 18 70 13 310 -8 395 -21 83 -49 159 -74 205 -9 17 -21 42 -28 58 -6 15 -15 27 -20 27 -5 0 -9 5 -9 11 0 30 -129 168 -225 240 -68 52 -209 123 -287 145 -44 12 -261 45 -278 42 -3 0 -48 -6 -100 -13z"/> </g> </svg> 