<?xml version="1.0" standalone="no"?>
<!DOCTYPE svg PUBLIC "-//W3C//DTD SVG 20010904//EN"
 "http://www.w3.org/TR/2001/REC-SVG-20010904/DTD/svg10.dtd">
<svg version="1.0" xmlns="http://www.w3.org/2000/svg"
 width="900.000000pt" height="900.000000pt" viewBox="0 0 900.000000 900.000000"
 preserveAspectRatio="xMidYMid meet">
<metadata>
Created by potrace 1.10, written by Peter Selinger 2001-2011
</metadata>
<g transform="translate(0.000000,900.000000) scale(0.100000,-0.100000)"
fill="#37af2d" stroke="none">
<path d="M4375 8985 c-8 -11 -51 -17 -191 -25 -171 -9 -221 -14 -389 -41 -38
-6 -95 -15 -125 -19 -30 -5 -73 -13 -95 -19 -22 -5 -80 -19 -130 -31 -49 -12
-103 -25 -120 -30 -119 -33 -154 -44 -183 -56 -18 -8 -40 -14 -48 -14 -9 0
-30 -6 -47 -14 -18 -8 -59 -23 -92 -34 -88 -30 -165 -61 -320 -132 -108 -49
-204 -97 -270 -135 -33 -19 -69 -39 -80 -44 -75 -33 -374 -231 -515 -339 -295
-227 -632 -564 -846 -847 -110 -145 -303 -438 -335 -510 -5 -11 -25 -47 -44
-80 -38 -66 -86 -162 -135 -270 -71 -155 -102 -232 -132 -320 -11 -33 -26 -74
-34 -92 -8 -17 -14 -38 -14 -46 0 -8 -7 -28 -15 -43 -8 -16 -15 -37 -15 -47 0
-10 -5 -27 -10 -38 -6 -10 -15 -38 -19 -61 -5 -24 -21 -88 -35 -143 -38 -148
-47 -188 -56 -247 -5 -29 -13 -84 -19 -123 -26 -165 -32 -218 -44 -389 -6
-100 -12 -242 -12 -316 0 -157 19 -472 35 -580 33 -217 61 -370 86 -456 7 -28
14 -58 14 -67 0 -9 7 -38 15 -64 8 -26 22 -70 30 -98 35 -118 89 -281 97 -289
4 -6 8 -16 8 -24 0 -8 6 -28 14 -45 7 -18 24 -57 36 -87 54 -133 188 -410 240
-495 20 -33 40 -67 44 -75 11 -23 18 -35 125 -200 176 -273 472 -621 700 -824
58 -52 124 -111 146 -131 73 -66 313 -245 449 -335 203 -133 540 -310 766
-400 30 -12 69 -29 87 -36 17 -8 37 -14 45 -14 8 0 18 -4 23 -8 11 -9 188 -68
290 -96 33 -9 74 -21 91 -26 16 -6 50 -14 75 -20 24 -5 73 -16 109 -24 332
-73 391 -78 930 -83 462 -4 501 -3 710 28 168 24 196 29 230 38 19 5 71 17
115 26 114 25 217 54 400 114 119 38 236 81 285 102 14 6 39 17 55 23 103 42
345 161 430 211 39 22 77 44 85 48 8 4 29 16 45 27 17 11 37 23 45 27 43 20
394 265 420 293 3 3 38 31 77 63 106 84 161 135 323 297 162 162 213 217 297
323 32 39 60 74 63 77 28 26 273 377 293 420 4 8 16 29 27 45 11 17 23 37 27
45 4 8 26 47 48 85 51 86 158 306 209 427 8 18 19 44 25 58 29 67 64 166 152
438 56 174 115 466 145 730 4 28 10 42 20 42 12 0 14 70 14 490 0 420 -2 490
-14 490 -15 0 -18 14 -31 140 -3 30 -10 78 -15 105 -23 126 -33 175 -46 235
-8 36 -19 85 -24 109 -6 25 -14 59 -20 75 -5 17 -17 58 -26 91 -28 102 -87
279 -96 289 -4 6 -8 16 -8 24 0 8 -6 28 -14 45 -7 18 -24 57 -36 87 -101 254
-264 560 -424 800 -76 114 -255 353 -308 411 -18 21 -80 90 -138 154 -93 103
-292 293 -420 400 -84 70 -314 241 -400 296 -164 106 -176 114 -200 126 -8 4
-46 26 -85 48 -100 59 -353 181 -485 235 -30 12 -69 29 -87 36 -17 8 -37 14
-45 14 -8 0 -18 4 -24 8 -11 11 -262 92 -384 125 -115 31 -305 71 -425 91
-188 31 -248 37 -415 46 -180 10 -214 15 -205 31 4 5 -44 9 -117 9 -97 0 -125
-3 -133 -15z m460 -865 c196 -19 459 -65 620 -109 75 -21 240 -74 272 -88 17
-7 38 -13 46 -13 9 0 18 -4 21 -9 3 -5 18 -12 33 -15 16 -4 43 -13 60 -22 18
-8 47 -21 65 -29 162 -69 427 -213 578 -313 61 -41 292 -212 300 -222 3 -4 39
-35 80 -70 199 -169 466 -470 615 -695 22 -33 42 -62 45 -65 3 -3 10 -14 17
-25 6 -11 34 -57 62 -102 46 -77 189 -359 225 -448 10 -22 21 -48 26 -57 6
-10 10 -23 10 -29 0 -6 6 -25 14 -42 48 -109 151 -472 171 -602 3 -22 10 -60
15 -85 20 -95 39 -302 45 -470 10 -327 -19 -645 -88 -950 -32 -143 -84 -319
-113 -387 -8 -17 -14 -36 -14 -42 0 -6 -6 -25 -14 -43 -8 -18 -21 -49 -30 -70
-9 -20 -16 -38 -16 -41 0 -8 -57 -132 -99 -217 -101 -201 -223 -402 -324 -535
-164 -214 -295 -359 -483 -536 -81 -76 -259 -224 -293 -243 -8 -5 -20 -14 -26
-18 -74 -63 -377 -247 -525 -320 -112 -55 -229 -108 -238 -108 -4 -1 -25 -9
-47 -20 -80 -39 -95 -25 -96 89 0 48 -5 129 -9 181 -4 52 -13 214 -19 360 -11
259 -34 508 -50 539 -5 9 -11 32 -15 51 -3 19 -28 78 -53 130 -39 78 -63 111
-135 184 -49 49 -88 93 -88 98 0 4 12 8 27 8 56 0 348 52 484 86 66 16 229 68
264 83 11 5 60 26 110 46 49 21 106 48 127 61 21 13 41 24 46 24 15 0 197 124
273 187 190 155 355 376 448 599 18 44 37 87 42 96 9 18 13 32 52 188 46 181
50 213 54 461 4 204 2 262 -12 335 -21 109 -52 233 -65 256 -6 10 -10 23 -10
29 0 14 -19 59 -86 196 -80 164 -189 321 -330 472 l-42 44 -5 331 c-6 385 -23
701 -40 754 l-12 37 -100 0 c-55 0 -127 -6 -160 -14 -64 -14 -234 -69 -300
-96 -101 -41 -294 -135 -360 -175 -27 -16 -57 -33 -65 -37 -8 -4 -47 -29 -86
-55 -39 -26 -80 -48 -91 -48 -12 0 -49 8 -84 19 -84 24 -156 41 -221 51 -29 5
-82 13 -118 18 -321 50 -796 51 -1130 1 -129 -19 -282 -53 -372 -82 -55 -17
-36 -25 -240 99 -116 70 -264 148 -363 190 -16 7 -46 20 -67 28 -20 9 -42 16
-50 16 -8 0 -18 4 -23 9 -26 26 -296 81 -397 81 -73 0 -87 -8 -108 -62 -7 -18
-19 -47 -26 -65 -8 -17 -14 -39 -14 -48 0 -9 -5 -25 -10 -35 -18 -34 -48 -213
-54 -330 -11 -187 10 -369 55 -498 11 -30 19 -61 19 -69 0 -8 -76 -90 -168
-182 -93 -91 -190 -194 -216 -228 -112 -149 -201 -336 -227 -477 -40 -221 -39
-340 5 -561 32 -159 35 -168 77 -295 31 -91 48 -137 58 -158 5 -9 33 -66 62
-125 30 -60 59 -116 64 -125 152 -250 353 -456 603 -619 90 -59 259 -149 345
-184 29 -12 66 -28 84 -35 17 -8 37 -14 45 -14 8 0 18 -4 24 -8 12 -12 132
-49 294 -92 64 -17 164 -39 225 -50 33 -5 80 -14 105 -20 25 -5 64 -9 87 -10
23 0 44 -4 48 -9 3 -5 -23 -23 -58 -39 -77 -37 -151 -109 -183 -179 -13 -28
-24 -57 -24 -63 0 -23 -34 -68 -54 -73 -12 -3 -52 -16 -91 -30 -126 -44 -216
-59 -354 -59 -102 0 -142 5 -196 21 -179 56 -302 154 -430 347 -85 127 -139
188 -230 258 -136 106 -239 146 -372 146 -193 0 -203 -81 -25 -207 17 -13 34
-23 38 -23 13 0 91 -65 142 -119 94 -99 210 -299 284 -490 31 -82 180 -254
245 -284 12 -5 23 -13 23 -17 0 -5 121 -65 185 -91 11 -5 61 -18 110 -30 125
-31 433 -33 573 -4 68 14 95 16 103 8 13 -13 2 -791 -10 -812 -6 -9 -21 -8
-62 3 -61 16 -204 63 -234 76 -11 5 -45 19 -75 30 -233 92 -463 211 -670 348
-65 43 -324 236 -349 260 -10 9 -37 35 -62 56 -148 132 -308 298 -414 431 -22
27 -48 58 -57 69 -10 11 -30 38 -45 60 -15 23 -30 43 -33 46 -3 3 -23 32 -45
65 -22 33 -42 62 -45 65 -3 3 -10 14 -17 25 -7 11 -30 49 -51 85 -97 159 -197
358 -261 520 -12 30 -26 64 -31 75 -47 106 -141 446 -173 625 -50 272 -52 303
-52 670 0 293 3 375 18 470 52 333 103 536 206 815 54 149 129 312 220 480 61
111 238 387 261 405 3 3 19 23 35 45 154 211 487 544 685 686 25 18 47 35 50
39 8 11 270 185 315 210 22 12 60 33 85 47 176 99 401 199 600 266 73 25 96
32 210 64 181 50 435 97 620 113 126 10 560 11 675 0z"/>
</g>
</svg>
