 <svg  version="1.0" xmlns="http://www.w3.org/2000/svg"  width="300.000000pt" height="296.000000pt" viewBox="0 0 300.000000 296.000000"  preserveAspectRatio="xMidYMid meet">  <g transform="translate(0.000000,296.000000) scale(0.100000,-0.100000)" fill="#37af2d" stroke="none"> <path d="M1423 2190 c-182 -33 -319 -146 -387 -320 -14 -36 -26 -68 -26 -71 0 -3 21 14 46 39 26 24 76 58 111 74 59 28 71 30 146 26 110 -6 142 -24 287 -162 182 -174 267 -215 465 -223 213 -9 345 41 455 173 49 58 64 84 97 173 l24 66 -53 -52 c-78 -76 -145 -106 -238 -107 -110 -1 -161 27 -298 157 -137 131 -195 171 -297 203 -90 28 -244 40 -332 24z"/> <path d="M878 1530 c-178 -32 -303 -126 -377 -283 -51 -110 -51 -117 5 -68 27 24 72 55 99 69 43 23 62 27 140 27 122 0 155 -18 311 -166 104 -99 140 -126 207 -158 101 -48 161 -61 285 -61 213 0 358 72 458 227 33 51 74 142 74 165 0 7 -21 -9 -47 -34 -27 -26 -75 -60 -108 -75 -50 -23 -72 -28 -135 -27 -103 1 -152 27 -270 139 -161 153 -221 193 -340 229 -64 20 -234 29 -302 16z"/> </g> </svg> 